<mxfile host="app.diagrams.net" modified="2022-10-09T18:24:25.074Z" agent="5.0 (Macintosh; Intel Mac OS X 10_15_7) AppleWebKit/537.36 (KHTML, like Gecko) Chrome/106.0.0.0 Safari/537.36" etag="mTTXhxnoXlIWmsyhZX3L" version="20.4.0" type="github" pages="5">
  <diagram id="kCcOomu7lyHqf6Q8XP2y" name="EA">
    <mxGraphModel dx="1248" dy="1820" grid="1" gridSize="10" guides="1" tooltips="1" connect="1" arrows="1" fold="1" page="1" pageScale="1" pageWidth="827" pageHeight="1169" math="0" shadow="0">
      <root>
        <mxCell id="0" />
        <mxCell id="1" parent="0" />
        <mxCell id="ydRF5MVsVOp3m-XFBrbL-1" value="Conducteur" style="swimlane;fontSize=20;" parent="1" vertex="1">
          <mxGeometry x="310" y="470" width="230" height="183.75" as="geometry" />
        </mxCell>
        <mxCell id="ydRF5MVsVOp3m-XFBrbL-2" value="&lt;p class=&quot;MsoListParagraphCxSpFirst&quot; style=&quot;margin: 0cm 0cm 0cm 36pt ; line-height: 15.6933px ; font-size: 11pt ; font-family: &amp;quot;calibri&amp;quot; , sans-serif ; text-indent: -18pt&quot;&gt;&lt;/p&gt;&lt;font style=&quot;font-size: 18px&quot;&gt;PK Matricule&amp;nbsp;&lt;b&gt;string&lt;/b&gt;&lt;br&gt;FK ID feuille de route &lt;b&gt;string&lt;/b&gt;&lt;br&gt;&lt;/font&gt;" style="text;html=1;strokeColor=none;fillColor=none;align=left;verticalAlign=middle;whiteSpace=wrap;rounded=0;" parent="ydRF5MVsVOp3m-XFBrbL-1" vertex="1">
          <mxGeometry y="35" width="230" height="130" as="geometry" />
        </mxCell>
        <mxCell id="ydRF5MVsVOp3m-XFBrbL-3" value="Bus" style="swimlane;fontSize=20;" parent="1" vertex="1">
          <mxGeometry x="1604" y="462.01" width="260" height="195" as="geometry" />
        </mxCell>
        <mxCell id="ydRF5MVsVOp3m-XFBrbL-4" value="&lt;p class=&quot;MsoListParagraphCxSpFirst&quot; style=&quot;margin: 0cm 0cm 0cm 36pt ; line-height: 15.6933px ; font-size: 11pt ; font-family: &amp;quot;calibri&amp;quot; , sans-serif ; text-indent: -18pt&quot;&gt;&lt;/p&gt;&lt;p class=&quot;MsoListParagraphCxSpFirst&quot; style=&quot;margin: 0cm 0cm 0cm 36pt ; line-height: 15.6933px ; font-size: 11pt ; font-family: &amp;quot;calibri&amp;quot; , sans-serif ; text-indent: -18pt ; display: inline&quot;&gt;&lt;/p&gt;&lt;div style=&quot;font-size: 18px&quot;&gt;&lt;p style=&quot;margin: 0cm 0cm 0cm 36pt; line-height: 15.6933px; font-family: calibri, sans-serif; text-indent: -18pt;&quot; class=&quot;MsoListParagraphCxSpFirst&quot;&gt;&lt;span style=&quot;text-indent: -18pt;&quot;&gt;PK Immatriculation&amp;nbsp;&lt;b&gt;string&lt;/b&gt;&lt;/span&gt;&lt;/p&gt;&lt;p style=&quot;margin: 0cm 0cm 0cm 36pt; line-height: 15.6933px; font-family: calibri, sans-serif; text-indent: -18pt;&quot; class=&quot;MsoListParagraphCxSpFirst&quot;&gt;&lt;span lang=&quot;FR&quot;&gt;Année d&#39;achat&amp;nbsp;&lt;b&gt;date&lt;/b&gt;&amp;nbsp;&lt;/span&gt;&lt;/p&gt;&lt;p style=&quot;margin: 0cm 0cm 0cm 36pt; line-height: 15.6933px; font-family: calibri, sans-serif; text-indent: -18pt;&quot; class=&quot;MsoListParagraphCxSpFirst&quot;&gt;FK ID feuille de route &lt;b&gt;string&lt;/b&gt;&lt;/p&gt;&lt;/div&gt;" style="text;html=1;strokeColor=none;fillColor=none;align=left;verticalAlign=middle;whiteSpace=wrap;rounded=0;" parent="ydRF5MVsVOp3m-XFBrbL-3" vertex="1">
          <mxGeometry y="32.49" width="260" height="127.51" as="geometry" />
        </mxCell>
        <mxCell id="ydRF5MVsVOp3m-XFBrbL-5" value="Feuille de route" style="swimlane;startSize=40;fontSize=20;" parent="1" vertex="1">
          <mxGeometry x="1000" y="474.51" width="240.5" height="186.88" as="geometry" />
        </mxCell>
        <mxCell id="ydRF5MVsVOp3m-XFBrbL-6" value="&lt;p class=&quot;MsoListParagraphCxSpFirst&quot; style=&quot;margin: 0cm 0cm 0cm 36pt ; line-height: 15.6933px ; font-size: 11pt ; font-family: &amp;quot;calibri&amp;quot; , sans-serif ; text-indent: -18pt&quot;&gt;&lt;/p&gt;&lt;p class=&quot;MsoListParagraphCxSpFirst&quot; style=&quot;margin: 0cm 0cm 0cm 36pt ; line-height: 15.6933px ; font-size: 11pt ; font-family: &amp;quot;calibri&amp;quot; , sans-serif ; text-indent: -18pt ; display: inline&quot;&gt;&lt;/p&gt;&lt;p class=&quot;MsoListParagraphCxSpFirst&quot; style=&quot;text-align: left ; margin: 0cm 0cm 0cm 36pt ; line-height: 15.6933px ; font-family: &amp;quot;calibri&amp;quot; , sans-serif ; text-indent: -18pt ; font-size: 18px&quot;&gt;PK : Id feuille route &lt;b&gt;string&lt;/b&gt;&lt;/p&gt;&lt;p class=&quot;MsoListParagraphCxSpFirst&quot; style=&quot;text-align: left ; margin: 0cm 0cm 0cm 36pt ; line-height: 15.6933px ; font-family: &amp;quot;calibri&amp;quot; , sans-serif ; text-indent: -18pt ; font-size: 18px&quot;&gt;FK ID entretien &lt;b&gt;string&lt;/b&gt;&lt;/p&gt;&lt;p class=&quot;MsoListParagraphCxSpFirst&quot; style=&quot;text-align: left ; margin: 0cm 0cm 0cm 36pt ; line-height: 15.6933px ; font-family: &amp;quot;calibri&amp;quot; , sans-serif ; text-indent: -18pt ; font-size: 18px&quot;&gt;FK immatriculation &lt;b&gt;string&lt;/b&gt;&lt;/p&gt;&lt;p class=&quot;MsoListParagraphCxSpFirst&quot; style=&quot;text-align: left ; margin: 0cm 0cm 0cm 36pt ; line-height: 15.6933px ; font-family: &amp;quot;calibri&amp;quot; , sans-serif ; text-indent: -18pt ; font-size: 18px&quot;&gt;FK Matricule &lt;b&gt;string&lt;/b&gt;&lt;/p&gt;&lt;p class=&quot;MsoListParagraphCxSpFirst&quot; style=&quot;text-align: left ; margin: 0cm 0cm 0cm 36pt ; line-height: 15.6933px ; font-family: &amp;quot;calibri&amp;quot; , sans-serif ; text-indent: -18pt ; font-size: 18px&quot;&gt;Date du jour &lt;b&gt;Date&lt;/b&gt;&lt;/p&gt;&lt;p class=&quot;MsoListParagraphCxSpFirst&quot; style=&quot;text-align: left ; margin: 0cm 0cm 0cm 36pt ; line-height: 15.6933px ; font-family: &amp;quot;calibri&amp;quot; , sans-serif ; text-indent: -18pt ; font-size: 18px&quot;&gt;&lt;br&gt;&lt;/p&gt;" style="text;html=1;strokeColor=none;fillColor=none;align=center;verticalAlign=middle;whiteSpace=wrap;rounded=0;spacingTop=0;" parent="ydRF5MVsVOp3m-XFBrbL-5" vertex="1">
          <mxGeometry x="-2.25" y="-13.12" width="242.25" height="200" as="geometry" />
        </mxCell>
        <mxCell id="zJk3NgUdW0khPfUPsUJg-4" style="edgeStyle=orthogonalEdgeStyle;rounded=0;orthogonalLoop=1;jettySize=auto;html=1;exitX=0;exitY=0.5;exitDx=0;exitDy=0;entryX=1;entryY=0.5;entryDx=0;entryDy=0;fontSize=20;" parent="1" source="ydRF5MVsVOp3m-XFBrbL-7" target="zJk3NgUdW0khPfUPsUJg-3" edge="1">
          <mxGeometry relative="1" as="geometry" />
        </mxCell>
        <mxCell id="zJk3NgUdW0khPfUPsUJg-7" value="1,1" style="edgeLabel;html=1;align=center;verticalAlign=middle;resizable=0;points=[];fontSize=20;" parent="zJk3NgUdW0khPfUPsUJg-4" vertex="1" connectable="0">
          <mxGeometry x="-0.0958" y="-2" relative="1" as="geometry">
            <mxPoint x="1" as="offset" />
          </mxGeometry>
        </mxCell>
        <mxCell id="ydRF5MVsVOp3m-XFBrbL-7" value="Entretient" style="swimlane;fontSize=20;startSize=39;" parent="1" vertex="1">
          <mxGeometry x="1015.75" y="-275" width="234.25" height="250" as="geometry" />
        </mxCell>
        <mxCell id="ydRF5MVsVOp3m-XFBrbL-8" value="&lt;p class=&quot;MsoListParagraphCxSpFirst&quot; style=&quot;margin: 0cm 0cm 0cm 36pt ; line-height: 15.6933px ; font-size: 20px ; font-family: &amp;quot;calibri&amp;quot; , sans-serif ; text-indent: -18pt&quot;&gt;&lt;/p&gt;&lt;p class=&quot;MsoListParagraphCxSpFirst&quot; style=&quot;margin: 0cm 0cm 0cm 36pt ; line-height: 15.6933px ; text-indent: -18pt ; display: inline ; font-size: 20px&quot;&gt;&lt;/p&gt;&lt;div style=&quot;text-indent: -24px ; font-size: 18px&quot;&gt;&lt;span style=&quot;font-family: calibri, sans-serif; background-color: initial;&quot;&gt;&lt;br&gt;&lt;/span&gt;&lt;/div&gt;&lt;div style=&quot;text-indent: -24px ; font-size: 18px&quot;&gt;&lt;span style=&quot;font-family: calibri, sans-serif; background-color: initial;&quot;&gt;PK ID entretien &lt;b&gt;string&lt;/b&gt;&lt;/span&gt;&lt;/div&gt;&lt;div style=&quot;text-indent: -24px ; font-size: 18px&quot;&gt;&lt;span style=&quot;font-family: calibri, sans-serif; background-color: initial;&quot;&gt;Entretien 1&lt;/span&gt;&lt;/div&gt;&lt;div style=&quot;text-indent: -24px ; font-size: 18px&quot;&gt;&lt;span style=&quot;font-family: calibri, sans-serif;&quot;&gt;Entretien 2&lt;/span&gt;&lt;span style=&quot;font-family: calibri, sans-serif; background-color: initial;&quot;&gt;&lt;br&gt;&lt;/span&gt;&lt;/div&gt;&lt;div style=&quot;text-indent: -24px ; font-size: 18px&quot;&gt;&lt;span style=&quot;font-family: calibri, sans-serif;&quot;&gt;Entretien 3&lt;/span&gt;&lt;/div&gt;&lt;div style=&quot;text-indent: -24px ; font-size: 18px&quot;&gt;&lt;span style=&quot;font-family: calibri, sans-serif; background-color: initial;&quot;&gt;opération&lt;/span&gt;&lt;br&gt;&lt;/div&gt;&lt;div style=&quot;text-indent: -24px ; font-size: 18px&quot;&gt;&lt;span style=&quot;font-family: calibri, sans-serif; background-color: initial;&quot;&gt;FK ID opération&lt;/span&gt;&lt;/div&gt;&lt;div style=&quot;text-indent: -24px ; font-size: 18px&quot;&gt;&lt;span style=&quot;font-family: calibri, sans-serif; background-color: initial;&quot;&gt;FK ID Matricule meca&lt;/span&gt;&lt;/div&gt;&lt;div style=&quot;text-indent: -24px ; font-size: 18px&quot;&gt;&lt;span style=&quot;font-family: calibri, sans-serif; background-color: initial;&quot;&gt;Date&lt;/span&gt;&lt;br&gt;&lt;/div&gt;&lt;p style=&quot;font-size: 20px&quot;&gt;&lt;/p&gt;" style="text;html=1;strokeColor=none;fillColor=none;align=left;verticalAlign=middle;whiteSpace=wrap;rounded=0;fontSize=20;" parent="ydRF5MVsVOp3m-XFBrbL-7" vertex="1">
          <mxGeometry x="57.13" y="82.63" width="172.87" height="79.74" as="geometry" />
        </mxCell>
        <mxCell id="ydRF5MVsVOp3m-XFBrbL-19" value="" style="endArrow=none;html=1;fontSize=20;strokeColor=#000000;fillColor=#000000;exitX=1;exitY=0.5;exitDx=0;exitDy=0;entryX=0;entryY=0.5;entryDx=0;entryDy=0;startArrow=none;" parent="1" source="ydRF5MVsVOp3m-XFBrbL-31" target="ydRF5MVsVOp3m-XFBrbL-6" edge="1">
          <mxGeometry width="50" height="50" relative="1" as="geometry">
            <mxPoint x="930" y="510" as="sourcePoint" />
            <mxPoint x="960" y="530" as="targetPoint" />
          </mxGeometry>
        </mxCell>
        <mxCell id="ydRF5MVsVOp3m-XFBrbL-20" value="" style="endArrow=none;html=1;fontSize=20;strokeColor=#000000;fillColor=#000000;exitX=1;exitY=0.5;exitDx=0;exitDy=0;entryX=0;entryY=0.5;entryDx=0;entryDy=0;startArrow=none;" parent="1" source="ydRF5MVsVOp3m-XFBrbL-29" target="ydRF5MVsVOp3m-XFBrbL-35" edge="1">
          <mxGeometry width="50" height="50" relative="1" as="geometry">
            <mxPoint x="560" y="561.8750000000001" as="sourcePoint" />
            <mxPoint x="660" y="553.75" as="targetPoint" />
          </mxGeometry>
        </mxCell>
        <mxCell id="ydRF5MVsVOp3m-XFBrbL-21" value="" style="rounded=1;whiteSpace=wrap;html=1;fontSize=20;" parent="1" vertex="1">
          <mxGeometry x="1360" y="529.5" width="120" height="60" as="geometry" />
        </mxCell>
        <mxCell id="ydRF5MVsVOp3m-XFBrbL-22" value="" style="endArrow=none;html=1;fontSize=20;strokeColor=#000000;fillColor=#000000;entryX=0;entryY=0.5;entryDx=0;entryDy=0;exitX=1;exitY=0.5;exitDx=0;exitDy=0;startArrow=none;" parent="1" source="ydRF5MVsVOp3m-XFBrbL-24" target="ydRF5MVsVOp3m-XFBrbL-21" edge="1">
          <mxGeometry width="50" height="50" relative="1" as="geometry">
            <mxPoint x="1252.75" y="540" as="sourcePoint" />
            <mxPoint x="1480" y="540" as="targetPoint" />
          </mxGeometry>
        </mxCell>
        <mxCell id="ydRF5MVsVOp3m-XFBrbL-23" value="Posséder" style="text;html=1;strokeColor=none;fillColor=none;align=center;verticalAlign=middle;whiteSpace=wrap;rounded=0;fontSize=20;" parent="1" vertex="1">
          <mxGeometry x="1400" y="549.5" width="40" height="20" as="geometry" />
        </mxCell>
        <mxCell id="ydRF5MVsVOp3m-XFBrbL-24" value="1,1" style="text;html=1;strokeColor=none;fillColor=none;align=center;verticalAlign=middle;whiteSpace=wrap;rounded=0;fontSize=20;" parent="1" vertex="1">
          <mxGeometry x="1290" y="550" width="40" height="20" as="geometry" />
        </mxCell>
        <mxCell id="ydRF5MVsVOp3m-XFBrbL-25" value="" style="endArrow=none;html=1;fontSize=20;strokeColor=#000000;fillColor=#000000;entryX=0;entryY=0.5;entryDx=0;entryDy=0;" parent="1" target="ydRF5MVsVOp3m-XFBrbL-24" edge="1">
          <mxGeometry width="50" height="50" relative="1" as="geometry">
            <mxPoint x="1240" y="560" as="sourcePoint" />
            <mxPoint x="1370" y="559.51" as="targetPoint" />
          </mxGeometry>
        </mxCell>
        <mxCell id="ydRF5MVsVOp3m-XFBrbL-26" value="" style="endArrow=none;html=1;fontSize=20;strokeColor=#000000;fillColor=#000000;entryX=0;entryY=0.5;entryDx=0;entryDy=0;exitX=1;exitY=0.5;exitDx=0;exitDy=0;startArrow=none;" parent="1" source="ydRF5MVsVOp3m-XFBrbL-27" target="ydRF5MVsVOp3m-XFBrbL-3" edge="1">
          <mxGeometry width="50" height="50" relative="1" as="geometry">
            <mxPoint x="1240" y="410" as="sourcePoint" />
            <mxPoint x="1290" y="360" as="targetPoint" />
          </mxGeometry>
        </mxCell>
        <mxCell id="ydRF5MVsVOp3m-XFBrbL-27" value="0,N" style="text;html=1;strokeColor=none;fillColor=none;align=center;verticalAlign=middle;whiteSpace=wrap;rounded=0;fontSize=20;" parent="1" vertex="1">
          <mxGeometry x="1520" y="550" width="40" height="20" as="geometry" />
        </mxCell>
        <mxCell id="ydRF5MVsVOp3m-XFBrbL-28" value="" style="endArrow=none;html=1;fontSize=20;strokeColor=#000000;fillColor=#000000;entryX=0;entryY=0.5;entryDx=0;entryDy=0;exitX=1;exitY=0.5;exitDx=0;exitDy=0;" parent="1" source="ydRF5MVsVOp3m-XFBrbL-21" target="ydRF5MVsVOp3m-XFBrbL-27" edge="1">
          <mxGeometry width="50" height="50" relative="1" as="geometry">
            <mxPoint x="1480" y="559.5" as="sourcePoint" />
            <mxPoint x="1600" y="559.51" as="targetPoint" />
          </mxGeometry>
        </mxCell>
        <mxCell id="ydRF5MVsVOp3m-XFBrbL-29" value="1,N" style="text;html=1;strokeColor=none;fillColor=none;align=center;verticalAlign=middle;whiteSpace=wrap;rounded=0;fontSize=20;" parent="1" vertex="1">
          <mxGeometry x="590" y="551.87" width="40" height="20" as="geometry" />
        </mxCell>
        <mxCell id="ydRF5MVsVOp3m-XFBrbL-30" value="" style="endArrow=none;html=1;fontSize=20;strokeColor=#000000;fillColor=#000000;exitX=1;exitY=0.5;exitDx=0;exitDy=0;entryX=0;entryY=0.5;entryDx=0;entryDy=0;" parent="1" source="ydRF5MVsVOp3m-XFBrbL-1" target="ydRF5MVsVOp3m-XFBrbL-29" edge="1">
          <mxGeometry width="50" height="50" relative="1" as="geometry">
            <mxPoint x="509.9999999999998" y="561.8749999999999" as="sourcePoint" />
            <mxPoint x="630" y="561.87" as="targetPoint" />
          </mxGeometry>
        </mxCell>
        <mxCell id="ydRF5MVsVOp3m-XFBrbL-31" value="1,N" style="text;html=1;strokeColor=none;fillColor=none;align=center;verticalAlign=middle;whiteSpace=wrap;rounded=0;fontSize=20;" parent="1" vertex="1">
          <mxGeometry x="905" y="550" width="40" height="20" as="geometry" />
        </mxCell>
        <mxCell id="ydRF5MVsVOp3m-XFBrbL-32" value="" style="endArrow=none;html=1;fontSize=20;strokeColor=#000000;fillColor=#000000;exitX=1;exitY=0.5;exitDx=0;exitDy=0;entryX=0;entryY=0.5;entryDx=0;entryDy=0;startArrow=none;" parent="1" source="ydRF5MVsVOp3m-XFBrbL-35" target="ydRF5MVsVOp3m-XFBrbL-31" edge="1">
          <mxGeometry width="50" height="50" relative="1" as="geometry">
            <mxPoint x="860" y="553.75" as="sourcePoint" />
            <mxPoint x="1000" y="559.5050000000001" as="targetPoint" />
          </mxGeometry>
        </mxCell>
        <mxCell id="ydRF5MVsVOp3m-XFBrbL-35" value="remplir" style="rounded=1;whiteSpace=wrap;html=1;fontSize=20;" parent="1" vertex="1">
          <mxGeometry x="710" y="530" width="120" height="60" as="geometry" />
        </mxCell>
        <mxCell id="ydRF5MVsVOp3m-XFBrbL-55" value="Mécanicien" style="swimlane;fontSize=20;" parent="1" vertex="1">
          <mxGeometry x="1620" y="-260" width="290" height="195" as="geometry" />
        </mxCell>
        <mxCell id="ydRF5MVsVOp3m-XFBrbL-56" value="&lt;p class=&quot;MsoListParagraphCxSpFirst&quot; style=&quot;margin: 0cm 0cm 0cm 36pt ; line-height: 15.6933px ; font-size: 11pt ; font-family: &amp;quot;calibri&amp;quot; , sans-serif ; text-indent: -18pt&quot;&gt;&lt;/p&gt;&lt;p class=&quot;MsoListParagraphCxSpFirst&quot; style=&quot;margin: 0cm 0cm 0cm 36pt ; line-height: 15.6933px ; font-size: 11pt ; font-family: &amp;quot;calibri&amp;quot; , sans-serif ; text-indent: -18pt ; display: inline&quot;&gt;&lt;/p&gt;&lt;div style=&quot;text-indent: -24px; font-size: 18px;&quot;&gt;PK ID Matricule mécanicien &lt;b&gt;string&lt;/b&gt;&lt;/div&gt;&lt;div style=&quot;text-indent: -24px; font-size: 18px;&quot;&gt;FK ID entretien &lt;b&gt;string&lt;/b&gt;&lt;/div&gt;" style="text;html=1;strokeColor=none;fillColor=none;align=left;verticalAlign=middle;whiteSpace=wrap;rounded=0;" parent="ydRF5MVsVOp3m-XFBrbL-55" vertex="1">
          <mxGeometry x="30" width="260" height="130" as="geometry" />
        </mxCell>
        <mxCell id="8QkXeBGlo2R6pgeVFJir-3" style="edgeStyle=orthogonalEdgeStyle;rounded=0;orthogonalLoop=1;jettySize=auto;html=1;exitX=0.5;exitY=0;exitDx=0;exitDy=0;entryX=0;entryY=0.5;entryDx=0;entryDy=0;fontSize=20;" parent="1" source="ydRF5MVsVOp3m-XFBrbL-61" target="8QkXeBGlo2R6pgeVFJir-1" edge="1">
          <mxGeometry relative="1" as="geometry" />
        </mxCell>
        <mxCell id="8QkXeBGlo2R6pgeVFJir-5" value="1,1" style="edgeLabel;html=1;align=center;verticalAlign=middle;resizable=0;points=[];fontSize=20;" parent="8QkXeBGlo2R6pgeVFJir-3" vertex="1" connectable="0">
          <mxGeometry x="-0.2086" y="-1" relative="1" as="geometry">
            <mxPoint y="-1" as="offset" />
          </mxGeometry>
        </mxCell>
        <mxCell id="ydRF5MVsVOp3m-XFBrbL-61" value="Opération" style="swimlane;fontSize=20;" parent="1" vertex="1">
          <mxGeometry x="500" y="-250" width="240" height="195" as="geometry" />
        </mxCell>
        <mxCell id="ydRF5MVsVOp3m-XFBrbL-62" value="&lt;p class=&quot;MsoListParagraphCxSpFirst&quot; style=&quot;margin: 0cm 0cm 0cm 36pt ; line-height: 15.6933px ; font-size: 11pt ; font-family: &amp;quot;calibri&amp;quot; , sans-serif ; text-indent: -18pt&quot;&gt;&lt;/p&gt;&lt;p class=&quot;MsoListParagraphCxSpFirst&quot; style=&quot;margin: 0cm 0cm 0cm 36pt ; line-height: 15.6933px ; font-size: 11pt ; font-family: &amp;quot;calibri&amp;quot; , sans-serif ; text-indent: -18pt ; display: inline&quot;&gt;&lt;/p&gt;&lt;div style=&quot;text-indent: -24px; font-size: 18px;&quot;&gt;PK ID opératio&lt;span style=&quot;background-color: initial;&quot;&gt;n &lt;b&gt;string&lt;/b&gt;&lt;/span&gt;&lt;/div&gt;&lt;div style=&quot;text-indent: -24px; font-size: 18px;&quot;&gt;&lt;span style=&quot;background-color: initial;&quot;&gt;FK ID entretien &lt;b&gt;string&lt;/b&gt;&lt;/span&gt;&lt;/div&gt;&lt;div style=&quot;text-indent: -24px; font-size: 18px;&quot;&gt;Description &lt;b&gt;string&lt;/b&gt;&lt;/div&gt;&lt;div style=&quot;text-indent: -24px; font-size: 18px;&quot;&gt;Coût &lt;b&gt;number&lt;/b&gt;&lt;/div&gt;&lt;div style=&quot;text-indent: -24px; font-size: 18px;&quot;&gt;Date &lt;b&gt;date&lt;/b&gt;&lt;/div&gt;" style="text;html=1;strokeColor=none;fillColor=none;align=left;verticalAlign=middle;whiteSpace=wrap;rounded=0;" parent="ydRF5MVsVOp3m-XFBrbL-61" vertex="1">
          <mxGeometry x="50" y="25" width="190" height="130" as="geometry" />
        </mxCell>
        <mxCell id="Iu7jHkpZ80fG5CSJtPb6-39" style="edgeStyle=orthogonalEdgeStyle;rounded=0;orthogonalLoop=1;jettySize=auto;html=1;exitX=0.5;exitY=1;exitDx=0;exitDy=0;entryX=0.5;entryY=0;entryDx=0;entryDy=0;fontSize=18;" parent="1" source="Iu7jHkpZ80fG5CSJtPb6-32" target="ydRF5MVsVOp3m-XFBrbL-5" edge="1">
          <mxGeometry relative="1" as="geometry" />
        </mxCell>
        <mxCell id="Iu7jHkpZ80fG5CSJtPb6-42" value="&lt;font style=&quot;font-size: 20px;&quot;&gt;1,1&lt;/font&gt;" style="edgeLabel;html=1;align=center;verticalAlign=middle;resizable=0;points=[];fontSize=18;" parent="Iu7jHkpZ80fG5CSJtPb6-39" vertex="1" connectable="0">
          <mxGeometry x="-0.399" relative="1" as="geometry">
            <mxPoint y="1" as="offset" />
          </mxGeometry>
        </mxCell>
        <mxCell id="Iu7jHkpZ80fG5CSJtPb6-40" style="edgeStyle=orthogonalEdgeStyle;rounded=0;orthogonalLoop=1;jettySize=auto;html=1;exitX=0.5;exitY=0;exitDx=0;exitDy=0;entryX=0.5;entryY=1;entryDx=0;entryDy=0;fontSize=18;" parent="1" source="Iu7jHkpZ80fG5CSJtPb6-32" target="ydRF5MVsVOp3m-XFBrbL-7" edge="1">
          <mxGeometry relative="1" as="geometry" />
        </mxCell>
        <mxCell id="Iu7jHkpZ80fG5CSJtPb6-43" value="&lt;font style=&quot;font-size: 20px;&quot;&gt;0,1&lt;/font&gt;" style="edgeLabel;html=1;align=center;verticalAlign=middle;resizable=0;points=[];fontSize=18;" parent="Iu7jHkpZ80fG5CSJtPb6-40" vertex="1" connectable="0">
          <mxGeometry x="0.2475" y="2" relative="1" as="geometry">
            <mxPoint as="offset" />
          </mxGeometry>
        </mxCell>
        <mxCell id="Iu7jHkpZ80fG5CSJtPb6-32" value="&lt;font style=&quot;font-size: 18px;&quot;&gt;Décide&lt;/font&gt;" style="rounded=1;whiteSpace=wrap;html=1;" parent="1" vertex="1">
          <mxGeometry x="1040" y="100" width="120" height="60" as="geometry" />
        </mxCell>
        <mxCell id="Iu7jHkpZ80fG5CSJtPb6-34" style="edgeStyle=orthogonalEdgeStyle;rounded=0;orthogonalLoop=1;jettySize=auto;html=1;exitX=1;exitY=0.5;exitDx=0;exitDy=0;entryX=0;entryY=0.5;entryDx=0;entryDy=0;fontSize=18;" parent="1" source="Iu7jHkpZ80fG5CSJtPb6-33" target="ydRF5MVsVOp3m-XFBrbL-55" edge="1">
          <mxGeometry relative="1" as="geometry" />
        </mxCell>
        <mxCell id="zJk3NgUdW0khPfUPsUJg-1" value="&lt;font style=&quot;font-size: 20px;&quot;&gt;0,N&lt;/font&gt;" style="edgeLabel;html=1;align=center;verticalAlign=middle;resizable=0;points=[];" parent="Iu7jHkpZ80fG5CSJtPb6-34" vertex="1" connectable="0">
          <mxGeometry x="-0.3569" y="-1" relative="1" as="geometry">
            <mxPoint y="1" as="offset" />
          </mxGeometry>
        </mxCell>
        <mxCell id="Iu7jHkpZ80fG5CSJtPb6-41" style="edgeStyle=orthogonalEdgeStyle;rounded=0;orthogonalLoop=1;jettySize=auto;html=1;exitX=0;exitY=0.5;exitDx=0;exitDy=0;entryX=1;entryY=0.5;entryDx=0;entryDy=0;fontSize=18;" parent="1" source="Iu7jHkpZ80fG5CSJtPb6-33" target="ydRF5MVsVOp3m-XFBrbL-7" edge="1">
          <mxGeometry relative="1" as="geometry" />
        </mxCell>
        <mxCell id="zJk3NgUdW0khPfUPsUJg-2" value="&lt;font style=&quot;font-size: 20px;&quot;&gt;1,1&lt;/font&gt;" style="edgeLabel;html=1;align=center;verticalAlign=middle;resizable=0;points=[];" parent="Iu7jHkpZ80fG5CSJtPb6-41" vertex="1" connectable="0">
          <mxGeometry x="-0.1867" y="4" relative="1" as="geometry">
            <mxPoint as="offset" />
          </mxGeometry>
        </mxCell>
        <mxCell id="Iu7jHkpZ80fG5CSJtPb6-33" value="&lt;font style=&quot;font-size: 18px;&quot;&gt;éffectue&lt;/font&gt;" style="rounded=1;whiteSpace=wrap;html=1;" parent="1" vertex="1">
          <mxGeometry x="1380" y="-200" width="120" height="60" as="geometry" />
        </mxCell>
        <mxCell id="zJk3NgUdW0khPfUPsUJg-3" value="&lt;font style=&quot;font-size: 18px;&quot;&gt;Spécifie&lt;/font&gt;" style="rounded=1;whiteSpace=wrap;html=1;" parent="1" vertex="1">
          <mxGeometry x="827" y="-180" width="120" height="60" as="geometry" />
        </mxCell>
        <mxCell id="zJk3NgUdW0khPfUPsUJg-5" style="edgeStyle=orthogonalEdgeStyle;rounded=0;orthogonalLoop=1;jettySize=auto;html=1;exitX=1;exitY=0.5;exitDx=0;exitDy=0;entryX=0;entryY=0.5;entryDx=0;entryDy=0;fontSize=20;" parent="1" source="ydRF5MVsVOp3m-XFBrbL-62" target="zJk3NgUdW0khPfUPsUJg-3" edge="1">
          <mxGeometry relative="1" as="geometry" />
        </mxCell>
        <mxCell id="zJk3NgUdW0khPfUPsUJg-6" value="0,N" style="edgeLabel;html=1;align=center;verticalAlign=middle;resizable=0;points=[];fontSize=20;" parent="zJk3NgUdW0khPfUPsUJg-5" vertex="1" connectable="0">
          <mxGeometry x="-0.1478" y="-1" relative="1" as="geometry">
            <mxPoint as="offset" />
          </mxGeometry>
        </mxCell>
        <mxCell id="8QkXeBGlo2R6pgeVFJir-1" value="&lt;font style=&quot;font-size: 18px;&quot;&gt;Complète&lt;/font&gt;" style="rounded=1;whiteSpace=wrap;html=1;" parent="1" vertex="1">
          <mxGeometry x="1080" y="-584" width="120" height="60" as="geometry" />
        </mxCell>
        <mxCell id="8QkXeBGlo2R6pgeVFJir-2" style="edgeStyle=orthogonalEdgeStyle;rounded=0;orthogonalLoop=1;jettySize=auto;html=1;exitX=0.5;exitY=0;exitDx=0;exitDy=0;entryX=1;entryY=0.5;entryDx=0;entryDy=0;fontSize=20;" parent="1" source="ydRF5MVsVOp3m-XFBrbL-56" target="8QkXeBGlo2R6pgeVFJir-1" edge="1">
          <mxGeometry relative="1" as="geometry" />
        </mxCell>
        <mxCell id="8QkXeBGlo2R6pgeVFJir-4" value="1,1" style="edgeLabel;html=1;align=center;verticalAlign=middle;resizable=0;points=[];fontSize=20;" parent="8QkXeBGlo2R6pgeVFJir-2" vertex="1" connectable="0">
          <mxGeometry x="-0.3232" y="-1" relative="1" as="geometry">
            <mxPoint y="-1" as="offset" />
          </mxGeometry>
        </mxCell>
      </root>
    </mxGraphModel>
  </diagram>
  <diagram name="Relationnel" id="ycE7DHLMLK6kGMOdhYsA">
    <mxGraphModel dx="1977" dy="2199" grid="1" gridSize="10" guides="1" tooltips="1" connect="1" arrows="1" fold="1" page="1" pageScale="1" pageWidth="827" pageHeight="1169" math="0" shadow="0">
      <root>
        <mxCell id="Ogg93DA5ztHDumInhNu2-0" />
        <mxCell id="Ogg93DA5ztHDumInhNu2-1" parent="Ogg93DA5ztHDumInhNu2-0" />
        <mxCell id="Ogg93DA5ztHDumInhNu2-2" value="Conducteur" style="swimlane;fontSize=20;" vertex="1" parent="Ogg93DA5ztHDumInhNu2-1">
          <mxGeometry x="310" y="470" width="230" height="183.75" as="geometry" />
        </mxCell>
        <mxCell id="Ogg93DA5ztHDumInhNu2-3" value="&lt;p class=&quot;MsoListParagraphCxSpFirst&quot; style=&quot;margin: 0cm 0cm 0cm 36pt ; line-height: 15.6933px ; font-size: 11pt ; font-family: &amp;quot;calibri&amp;quot; , sans-serif ; text-indent: -18pt&quot;&gt;&lt;/p&gt;&lt;font style=&quot;font-size: 18px&quot;&gt;PK Matricule&amp;nbsp;&lt;b&gt;string&lt;/b&gt;&lt;br&gt;&lt;br&gt;&lt;/font&gt;" style="text;html=1;strokeColor=none;fillColor=none;align=left;verticalAlign=middle;whiteSpace=wrap;rounded=0;" vertex="1" parent="Ogg93DA5ztHDumInhNu2-2">
          <mxGeometry y="35" width="230" height="130" as="geometry" />
        </mxCell>
        <mxCell id="Ogg93DA5ztHDumInhNu2-4" value="Bus" style="swimlane;fontSize=20;" vertex="1" parent="Ogg93DA5ztHDumInhNu2-1">
          <mxGeometry x="1604" y="462.01" width="260" height="195" as="geometry" />
        </mxCell>
        <mxCell id="Ogg93DA5ztHDumInhNu2-5" value="&lt;p class=&quot;MsoListParagraphCxSpFirst&quot; style=&quot;margin: 0cm 0cm 0cm 36pt ; line-height: 15.6933px ; font-size: 11pt ; font-family: &amp;quot;calibri&amp;quot; , sans-serif ; text-indent: -18pt&quot;&gt;&lt;/p&gt;&lt;p class=&quot;MsoListParagraphCxSpFirst&quot; style=&quot;margin: 0cm 0cm 0cm 36pt ; line-height: 15.6933px ; font-size: 11pt ; font-family: &amp;quot;calibri&amp;quot; , sans-serif ; text-indent: -18pt ; display: inline&quot;&gt;&lt;/p&gt;&lt;div style=&quot;font-size: 18px&quot;&gt;&lt;p style=&quot;margin: 0cm 0cm 0cm 36pt; line-height: 15.6933px; font-family: calibri, sans-serif; text-indent: -18pt;&quot; class=&quot;MsoListParagraphCxSpFirst&quot;&gt;&lt;span style=&quot;text-indent: -18pt;&quot;&gt;PK Immatriculation&amp;nbsp;&lt;b&gt;string&lt;/b&gt;&lt;/span&gt;&lt;/p&gt;&lt;p style=&quot;margin: 0cm 0cm 0cm 36pt; line-height: 15.6933px; font-family: calibri, sans-serif; text-indent: -18pt;&quot; class=&quot;MsoListParagraphCxSpFirst&quot;&gt;&lt;span lang=&quot;FR&quot;&gt;Année d&#39;achat&amp;nbsp;&lt;b&gt;date&lt;/b&gt;&amp;nbsp;&lt;/span&gt;&lt;/p&gt;&lt;p style=&quot;margin: 0cm 0cm 0cm 36pt; line-height: 15.6933px; font-family: calibri, sans-serif; text-indent: -18pt;&quot; class=&quot;MsoListParagraphCxSpFirst&quot;&gt;&lt;br&gt;&lt;/p&gt;&lt;/div&gt;" style="text;html=1;strokeColor=none;fillColor=none;align=left;verticalAlign=middle;whiteSpace=wrap;rounded=0;" vertex="1" parent="Ogg93DA5ztHDumInhNu2-4">
          <mxGeometry y="32.49" width="260" height="127.51" as="geometry" />
        </mxCell>
        <mxCell id="dyw0imZoKfIhxPqLfu_U-10" style="edgeStyle=orthogonalEdgeStyle;rounded=0;orthogonalLoop=1;jettySize=auto;html=1;exitX=1;exitY=0.5;exitDx=0;exitDy=0;entryX=0.005;entryY=0.573;entryDx=0;entryDy=0;entryPerimeter=0;" edge="1" parent="Ogg93DA5ztHDumInhNu2-1" source="Ogg93DA5ztHDumInhNu2-6" target="Ogg93DA5ztHDumInhNu2-5">
          <mxGeometry relative="1" as="geometry" />
        </mxCell>
        <mxCell id="Ogg93DA5ztHDumInhNu2-6" value="Feuille de route" style="swimlane;startSize=40;fontSize=20;" vertex="1" parent="Ogg93DA5ztHDumInhNu2-1">
          <mxGeometry x="1000" y="474.51" width="240.5" height="186.88" as="geometry" />
        </mxCell>
        <mxCell id="Ogg93DA5ztHDumInhNu2-7" value="&lt;p class=&quot;MsoListParagraphCxSpFirst&quot; style=&quot;margin: 0cm 0cm 0cm 36pt ; line-height: 15.6933px ; font-size: 11pt ; font-family: &amp;quot;calibri&amp;quot; , sans-serif ; text-indent: -18pt&quot;&gt;&lt;/p&gt;&lt;p class=&quot;MsoListParagraphCxSpFirst&quot; style=&quot;margin: 0cm 0cm 0cm 36pt ; line-height: 15.6933px ; font-size: 11pt ; font-family: &amp;quot;calibri&amp;quot; , sans-serif ; text-indent: -18pt ; display: inline&quot;&gt;&lt;/p&gt;&lt;p class=&quot;MsoListParagraphCxSpFirst&quot; style=&quot;text-align: left ; margin: 0cm 0cm 0cm 36pt ; line-height: 15.6933px ; font-family: &amp;quot;calibri&amp;quot; , sans-serif ; text-indent: -18pt ; font-size: 18px&quot;&gt;PK : Id feuille route &lt;b&gt;string&lt;/b&gt;&lt;/p&gt;&lt;p class=&quot;MsoListParagraphCxSpFirst&quot; style=&quot;text-align: left ; margin: 0cm 0cm 0cm 36pt ; line-height: 15.6933px ; font-family: &amp;quot;calibri&amp;quot; , sans-serif ; text-indent: -18pt ; font-size: 18px&quot;&gt;FK ID entretien &lt;b&gt;string&lt;/b&gt;&lt;/p&gt;&lt;p class=&quot;MsoListParagraphCxSpFirst&quot; style=&quot;text-align: left ; margin: 0cm 0cm 0cm 36pt ; line-height: 15.6933px ; font-family: &amp;quot;calibri&amp;quot; , sans-serif ; text-indent: -18pt ; font-size: 18px&quot;&gt;FK immatriculation &lt;b&gt;string&lt;/b&gt;&lt;/p&gt;&lt;p class=&quot;MsoListParagraphCxSpFirst&quot; style=&quot;text-align: left ; margin: 0cm 0cm 0cm 36pt ; line-height: 15.6933px ; font-family: &amp;quot;calibri&amp;quot; , sans-serif ; text-indent: -18pt ; font-size: 18px&quot;&gt;&lt;span style=&quot;text-indent: -18pt; background-color: initial;&quot;&gt;Date du jour &lt;/span&gt;&lt;b style=&quot;text-indent: -18pt; background-color: initial;&quot;&gt;Date&lt;/b&gt;&lt;br&gt;&lt;/p&gt;&lt;p class=&quot;MsoListParagraphCxSpFirst&quot; style=&quot;text-align: left ; margin: 0cm 0cm 0cm 36pt ; line-height: 15.6933px ; font-family: &amp;quot;calibri&amp;quot; , sans-serif ; text-indent: -18pt ; font-size: 18px&quot;&gt;&lt;br&gt;&lt;/p&gt;" style="text;html=1;strokeColor=none;fillColor=none;align=center;verticalAlign=middle;whiteSpace=wrap;rounded=0;spacingTop=0;" vertex="1" parent="Ogg93DA5ztHDumInhNu2-6">
          <mxGeometry x="-2.25" y="-13.12" width="242.25" height="200" as="geometry" />
        </mxCell>
        <mxCell id="7L6gYZ0BjVVXq2GNVzGg-1" style="edgeStyle=orthogonalEdgeStyle;rounded=0;orthogonalLoop=1;jettySize=auto;html=1;exitX=0;exitY=0.5;exitDx=0;exitDy=0;entryX=1;entryY=0.574;entryDx=0;entryDy=0;entryPerimeter=0;" edge="1" parent="Ogg93DA5ztHDumInhNu2-1" source="Ogg93DA5ztHDumInhNu2-10" target="Ogg93DA5ztHDumInhNu2-32">
          <mxGeometry relative="1" as="geometry" />
        </mxCell>
        <mxCell id="Ogg93DA5ztHDumInhNu2-10" value="Entretient" style="swimlane;fontSize=20;startSize=39;" vertex="1" parent="Ogg93DA5ztHDumInhNu2-1">
          <mxGeometry x="1015.75" y="-275" width="310" height="250" as="geometry" />
        </mxCell>
        <mxCell id="Ogg93DA5ztHDumInhNu2-11" value="&lt;p class=&quot;MsoListParagraphCxSpFirst&quot; style=&quot;margin: 0cm 0cm 0cm 36pt ; line-height: 15.6933px ; font-size: 20px ; font-family: &amp;quot;calibri&amp;quot; , sans-serif ; text-indent: -18pt&quot;&gt;&lt;/p&gt;&lt;p class=&quot;MsoListParagraphCxSpFirst&quot; style=&quot;margin: 0cm 0cm 0cm 36pt ; line-height: 15.6933px ; text-indent: -18pt ; display: inline ; font-size: 20px&quot;&gt;&lt;/p&gt;&lt;div style=&quot;text-indent: -24px ; font-size: 18px&quot;&gt;&lt;span style=&quot;font-family: calibri, sans-serif; background-color: initial;&quot;&gt;&lt;br&gt;&lt;/span&gt;&lt;/div&gt;&lt;div style=&quot;text-indent: -24px ; font-size: 18px&quot;&gt;&lt;span style=&quot;font-family: calibri, sans-serif; background-color: initial;&quot;&gt;PK ID entretien &lt;b&gt;string&lt;/b&gt;&lt;/span&gt;&lt;/div&gt;&lt;div style=&quot;text-indent: -24px ; font-size: 18px&quot;&gt;&lt;span style=&quot;font-family: calibri, sans-serif; background-color: initial;&quot;&gt;Entretien 1&lt;/span&gt;&lt;/div&gt;&lt;div style=&quot;text-indent: -24px ; font-size: 18px&quot;&gt;&lt;span style=&quot;font-family: calibri, sans-serif;&quot;&gt;Entretien 2&lt;/span&gt;&lt;span style=&quot;font-family: calibri, sans-serif; background-color: initial;&quot;&gt;&lt;br&gt;&lt;/span&gt;&lt;/div&gt;&lt;div style=&quot;text-indent: -24px ; font-size: 18px&quot;&gt;&lt;span style=&quot;font-family: calibri, sans-serif;&quot;&gt;Entretien 3&lt;/span&gt;&lt;/div&gt;&lt;div style=&quot;text-indent: -24px ; font-size: 18px&quot;&gt;&lt;span style=&quot;font-family: calibri, sans-serif; background-color: initial;&quot;&gt;opération&lt;/span&gt;&lt;br&gt;&lt;/div&gt;&lt;div style=&quot;text-indent: -24px ; font-size: 18px&quot;&gt;&lt;span style=&quot;font-family: calibri, sans-serif; background-color: initial;&quot;&gt;FK ID opération&lt;/span&gt;&lt;/div&gt;&lt;div style=&quot;text-indent: -24px ; font-size: 18px&quot;&gt;&lt;span style=&quot;font-family: calibri, sans-serif; background-color: initial;&quot;&gt;FK ID Matricule mecanicien&lt;/span&gt;&lt;/div&gt;&lt;div style=&quot;text-indent: -24px ; font-size: 18px&quot;&gt;&lt;span style=&quot;font-family: calibri, sans-serif; background-color: initial;&quot;&gt;Date&lt;/span&gt;&lt;br&gt;&lt;/div&gt;&lt;p style=&quot;font-size: 20px&quot;&gt;&lt;/p&gt;" style="text;html=1;strokeColor=none;fillColor=none;align=left;verticalAlign=middle;whiteSpace=wrap;rounded=0;fontSize=20;" vertex="1" parent="Ogg93DA5ztHDumInhNu2-10">
          <mxGeometry x="57.13" y="82.63" width="252.87" height="79.74" as="geometry" />
        </mxCell>
        <mxCell id="Ogg93DA5ztHDumInhNu2-13" value="" style="endArrow=none;html=1;fontSize=20;strokeColor=#000000;fillColor=#000000;exitX=1.002;exitY=0.429;exitDx=0;exitDy=0;entryX=-0.004;entryY=0.347;entryDx=0;entryDy=0;startArrow=none;entryPerimeter=0;exitPerimeter=0;" edge="1" parent="Ogg93DA5ztHDumInhNu2-1" source="Ogg93DA5ztHDumInhNu2-3" target="dyw0imZoKfIhxPqLfu_U-5">
          <mxGeometry width="50" height="50" relative="1" as="geometry">
            <mxPoint x="630" y="561.8699999999999" as="sourcePoint" />
            <mxPoint x="710" y="560" as="targetPoint" />
          </mxGeometry>
        </mxCell>
        <mxCell id="Ogg93DA5ztHDumInhNu2-27" value="Mécanicien" style="swimlane;fontSize=20;" vertex="1" parent="Ogg93DA5ztHDumInhNu2-1">
          <mxGeometry x="1620" y="-260" width="290" height="195" as="geometry" />
        </mxCell>
        <mxCell id="Ogg93DA5ztHDumInhNu2-28" value="&lt;p class=&quot;MsoListParagraphCxSpFirst&quot; style=&quot;margin: 0cm 0cm 0cm 36pt ; line-height: 15.6933px ; font-size: 11pt ; font-family: &amp;quot;calibri&amp;quot; , sans-serif ; text-indent: -18pt&quot;&gt;&lt;/p&gt;&lt;p class=&quot;MsoListParagraphCxSpFirst&quot; style=&quot;margin: 0cm 0cm 0cm 36pt ; line-height: 15.6933px ; font-size: 11pt ; font-family: &amp;quot;calibri&amp;quot; , sans-serif ; text-indent: -18pt ; display: inline&quot;&gt;&lt;/p&gt;&lt;div style=&quot;text-indent: -24px; font-size: 18px;&quot;&gt;PK ID Matricule mécanicien &lt;b&gt;string&lt;/b&gt;&lt;/div&gt;&lt;div style=&quot;text-indent: -24px; font-size: 18px;&quot;&gt;FK ID opération &lt;b&gt;string&lt;/b&gt;&lt;/div&gt;" style="text;html=1;strokeColor=none;fillColor=none;align=left;verticalAlign=middle;whiteSpace=wrap;rounded=0;" vertex="1" parent="Ogg93DA5ztHDumInhNu2-27">
          <mxGeometry x="30" width="260" height="130" as="geometry" />
        </mxCell>
        <mxCell id="Ogg93DA5ztHDumInhNu2-31" value="Opération" style="swimlane;fontSize=20;" vertex="1" parent="Ogg93DA5ztHDumInhNu2-1">
          <mxGeometry x="500" y="-250" width="240" height="195" as="geometry" />
        </mxCell>
        <mxCell id="Ogg93DA5ztHDumInhNu2-32" value="&lt;p class=&quot;MsoListParagraphCxSpFirst&quot; style=&quot;margin: 0cm 0cm 0cm 36pt ; line-height: 15.6933px ; font-size: 11pt ; font-family: &amp;quot;calibri&amp;quot; , sans-serif ; text-indent: -18pt&quot;&gt;&lt;/p&gt;&lt;p class=&quot;MsoListParagraphCxSpFirst&quot; style=&quot;margin: 0cm 0cm 0cm 36pt ; line-height: 15.6933px ; font-size: 11pt ; font-family: &amp;quot;calibri&amp;quot; , sans-serif ; text-indent: -18pt ; display: inline&quot;&gt;&lt;/p&gt;&lt;div style=&quot;text-indent: -24px; font-size: 18px;&quot;&gt;PK ID opératio&lt;span style=&quot;background-color: initial;&quot;&gt;n &lt;b&gt;string&lt;/b&gt;&lt;/span&gt;&lt;/div&gt;&lt;div style=&quot;text-indent: -24px; font-size: 18px;&quot;&gt;&lt;span style=&quot;background-color: initial;&quot;&gt;Description &lt;/span&gt;&lt;b style=&quot;background-color: initial;&quot;&gt;string&lt;/b&gt;&lt;br&gt;&lt;/div&gt;&lt;div style=&quot;text-indent: -24px; font-size: 18px;&quot;&gt;Coût &lt;b&gt;number&lt;/b&gt;&lt;/div&gt;&lt;div style=&quot;text-indent: -24px; font-size: 18px;&quot;&gt;Date &lt;b&gt;date&lt;/b&gt;&lt;/div&gt;" style="text;html=1;strokeColor=none;fillColor=none;align=left;verticalAlign=middle;whiteSpace=wrap;rounded=0;" vertex="1" parent="Ogg93DA5ztHDumInhNu2-31">
          <mxGeometry x="50" y="25" width="190" height="130" as="geometry" />
        </mxCell>
        <mxCell id="dyw0imZoKfIhxPqLfu_U-4" value="Remplir" style="swimlane;childLayout=stackLayout;horizontal=1;startSize=30;horizontalStack=0;rounded=1;fontSize=14;fontStyle=0;strokeWidth=2;resizeParent=0;resizeLast=1;shadow=0;dashed=0;align=center;" vertex="1" parent="Ogg93DA5ztHDumInhNu2-1">
          <mxGeometry x="700" y="499.5" width="160" height="120" as="geometry" />
        </mxCell>
        <mxCell id="dyw0imZoKfIhxPqLfu_U-5" value="+FK Matricule conducteur&#xa;+FK Id feuille de route&#xa;+Attribute3" style="align=left;strokeColor=none;fillColor=none;spacingLeft=4;fontSize=12;verticalAlign=top;resizable=0;rotatable=0;part=1;" vertex="1" parent="dyw0imZoKfIhxPqLfu_U-4">
          <mxGeometry y="30" width="160" height="90" as="geometry" />
        </mxCell>
        <mxCell id="dyw0imZoKfIhxPqLfu_U-9" value="" style="endArrow=none;html=1;rounded=0;entryX=0.006;entryY=0.483;entryDx=0;entryDy=0;exitX=1.005;exitY=0.342;exitDx=0;exitDy=0;exitPerimeter=0;entryPerimeter=0;" edge="1" parent="Ogg93DA5ztHDumInhNu2-1" source="dyw0imZoKfIhxPqLfu_U-5" target="Ogg93DA5ztHDumInhNu2-7">
          <mxGeometry width="50" height="50" relative="1" as="geometry">
            <mxPoint x="840" y="610" as="sourcePoint" />
            <mxPoint x="905" y="560" as="targetPoint" />
          </mxGeometry>
        </mxCell>
        <mxCell id="dyw0imZoKfIhxPqLfu_U-12" style="edgeStyle=orthogonalEdgeStyle;rounded=0;orthogonalLoop=1;jettySize=auto;html=1;exitX=0.5;exitY=0;exitDx=0;exitDy=0;entryX=0.5;entryY=1;entryDx=0;entryDy=0;" edge="1" parent="Ogg93DA5ztHDumInhNu2-1" source="Ogg93DA5ztHDumInhNu2-7" target="Ogg93DA5ztHDumInhNu2-10">
          <mxGeometry relative="1" as="geometry" />
        </mxCell>
        <mxCell id="7L6gYZ0BjVVXq2GNVzGg-0" style="edgeStyle=orthogonalEdgeStyle;rounded=0;orthogonalLoop=1;jettySize=auto;html=1;exitX=1;exitY=0.75;exitDx=0;exitDy=0;" edge="1" parent="Ogg93DA5ztHDumInhNu2-1" source="Ogg93DA5ztHDumInhNu2-11">
          <mxGeometry relative="1" as="geometry">
            <mxPoint x="1620" y="-132.95652173913027" as="targetPoint" />
          </mxGeometry>
        </mxCell>
        <mxCell id="7L6gYZ0BjVVXq2GNVzGg-3" style="edgeStyle=orthogonalEdgeStyle;rounded=0;orthogonalLoop=1;jettySize=auto;html=1;exitX=0.5;exitY=0;exitDx=0;exitDy=0;entryX=0.5;entryY=0;entryDx=0;entryDy=0;" edge="1" parent="Ogg93DA5ztHDumInhNu2-1" source="Ogg93DA5ztHDumInhNu2-28" target="Ogg93DA5ztHDumInhNu2-31">
          <mxGeometry relative="1" as="geometry">
            <Array as="points">
              <mxPoint x="1780" y="-560" />
              <mxPoint x="620" y="-560" />
            </Array>
          </mxGeometry>
        </mxCell>
      </root>
    </mxGraphModel>
  </diagram>
  <diagram name="Copie de Page-1" id="vSryEvdh9eNInihSYBhe">
    <mxGraphModel dx="2965" dy="1545" grid="1" gridSize="10" guides="1" tooltips="1" connect="1" arrows="1" fold="1" page="1" pageScale="1" pageWidth="827" pageHeight="1169" math="0" shadow="0">
      <root>
        <mxCell id="OkvGatnhdS_OigGqhSep-0" />
        <mxCell id="OkvGatnhdS_OigGqhSep-1" parent="OkvGatnhdS_OigGqhSep-0" />
        <mxCell id="OkvGatnhdS_OigGqhSep-2" value="Conducteur" style="swimlane;fontSize=20;" parent="OkvGatnhdS_OigGqhSep-1" vertex="1">
          <mxGeometry x="310" y="470" width="200" height="183.75" as="geometry" />
        </mxCell>
        <mxCell id="OkvGatnhdS_OigGqhSep-3" value="&lt;p class=&quot;MsoListParagraphCxSpFirst&quot; style=&quot;margin: 0cm 0cm 0cm 36pt ; line-height: 15.6933px ; font-size: 11pt ; font-family: &amp;quot;calibri&amp;quot; , sans-serif ; text-indent: -18pt&quot;&gt;&lt;/p&gt;&lt;font style=&quot;font-size: 18px&quot;&gt;Matricule&amp;nbsp;&lt;b&gt;string&lt;/b&gt;&lt;br&gt;&lt;b&gt;&lt;br&gt;&lt;/b&gt;&lt;/font&gt;" style="text;html=1;strokeColor=none;fillColor=none;align=left;verticalAlign=middle;whiteSpace=wrap;rounded=0;" parent="OkvGatnhdS_OigGqhSep-2" vertex="1">
          <mxGeometry x="10" y="35" width="190" height="130" as="geometry" />
        </mxCell>
        <mxCell id="OkvGatnhdS_OigGqhSep-4" value="Feuille de route" style="swimlane;fontSize=20;" parent="OkvGatnhdS_OigGqhSep-1" vertex="1">
          <mxGeometry x="1604" y="462.01" width="240" height="195" as="geometry" />
        </mxCell>
        <mxCell id="OkvGatnhdS_OigGqhSep-5" value="&lt;p class=&quot;MsoListParagraphCxSpFirst&quot; style=&quot;margin: 0cm 0cm 0cm 36pt ; line-height: 15.6933px ; font-size: 11pt ; font-family: &amp;quot;calibri&amp;quot; , sans-serif ; text-indent: -18pt&quot;&gt;&lt;/p&gt;&lt;p class=&quot;MsoListParagraphCxSpFirst&quot; style=&quot;margin: 0cm 0cm 0cm 36pt ; line-height: 15.6933px ; font-size: 11pt ; font-family: &amp;quot;calibri&amp;quot; , sans-serif ; text-indent: -18pt ; display: inline&quot;&gt;&lt;/p&gt;&lt;div style=&quot;font-size: 18px&quot;&gt;&lt;br&gt;&lt;/div&gt;" style="text;html=1;strokeColor=none;fillColor=none;align=left;verticalAlign=middle;whiteSpace=wrap;rounded=0;" parent="OkvGatnhdS_OigGqhSep-4" vertex="1">
          <mxGeometry x="10" y="34.87000000000001" width="220" height="130" as="geometry" />
        </mxCell>
        <mxCell id="OkvGatnhdS_OigGqhSep-6" value="Bus" style="swimlane;startSize=40;fontSize=20;" parent="OkvGatnhdS_OigGqhSep-1" vertex="1">
          <mxGeometry x="1000" y="440" width="240.5" height="239.01" as="geometry" />
        </mxCell>
        <mxCell id="OkvGatnhdS_OigGqhSep-7" value="&lt;p class=&quot;MsoListParagraphCxSpFirst&quot; style=&quot;margin: 0cm 0cm 0cm 36pt ; line-height: 15.6933px ; font-size: 11pt ; font-family: &amp;quot;calibri&amp;quot; , sans-serif ; text-indent: -18pt&quot;&gt;&lt;/p&gt;&lt;p class=&quot;MsoListParagraphCxSpFirst&quot; style=&quot;margin: 0cm 0cm 0cm 36pt ; line-height: 15.6933px ; font-size: 11pt ; font-family: &amp;quot;calibri&amp;quot; , sans-serif ; text-indent: -18pt ; display: inline&quot;&gt;&lt;/p&gt;&lt;p class=&quot;MsoListParagraphCxSpFirst&quot; style=&quot;text-align: left ; margin: 0cm 0cm 0cm 36pt ; line-height: 15.6933px ; font-family: &amp;quot;calibri&amp;quot; , sans-serif ; text-indent: -18pt ; font-size: 18px&quot;&gt;&lt;span lang=&quot;FR&quot;&gt;&lt;font style=&quot;font-size: 18px&quot;&gt;Année d&#39;achat&amp;nbsp;&lt;b&gt;date&lt;/b&gt;&amp;nbsp;&lt;/font&gt;&lt;/span&gt;&lt;/p&gt;&lt;p class=&quot;MsoListParagraphCxSpFirst&quot; style=&quot;text-align: left ; margin: 0cm 0cm 0cm 36pt ; line-height: 15.6933px ; font-family: &amp;quot;calibri&amp;quot; , sans-serif ; text-indent: -18pt ; font-size: 18px&quot;&gt;&lt;span style=&quot;text-indent: -18pt&quot;&gt;Immatriculation&amp;nbsp;&lt;b&gt;string&lt;/b&gt;&lt;/span&gt;&lt;/p&gt;&lt;p class=&quot;MsoListParagraphCxSpMiddle&quot; style=&quot;text-align: left ; margin: 0cm 0cm 0cm 36pt ; line-height: 15.6933px ; font-family: &amp;quot;calibri&amp;quot; , sans-serif ; text-indent: -18pt ; font-size: 18px&quot;&gt;&lt;br&gt;&lt;/p&gt;" style="text;html=1;strokeColor=none;fillColor=none;align=center;verticalAlign=middle;whiteSpace=wrap;rounded=0;spacingTop=0;" parent="OkvGatnhdS_OigGqhSep-6" vertex="1">
          <mxGeometry x="10.75" y="39.01" width="204.5" height="200" as="geometry" />
        </mxCell>
        <mxCell id="OkvGatnhdS_OigGqhSep-8" value="Entretient 1" style="swimlane;fontSize=20;startSize=39;" parent="OkvGatnhdS_OigGqhSep-1" vertex="1">
          <mxGeometry x="740.5" y="39" width="204.5" height="160" as="geometry" />
        </mxCell>
        <mxCell id="OkvGatnhdS_OigGqhSep-9" value="&lt;p class=&quot;MsoListParagraphCxSpFirst&quot; style=&quot;margin: 0cm 0cm 0cm 36pt ; line-height: 15.6933px ; font-size: 20px ; font-family: &amp;#34;calibri&amp;#34; , sans-serif ; text-indent: -18pt&quot;&gt;&lt;/p&gt;&lt;p class=&quot;MsoListParagraphCxSpFirst&quot; style=&quot;margin: 0cm 0cm 0cm 36pt ; line-height: 15.6933px ; text-indent: -18pt ; display: inline ; font-size: 20px&quot;&gt;&lt;/p&gt;&lt;div style=&quot;text-indent: -24px ; font-size: 18px&quot;&gt;&lt;font face=&quot;calibri, sans-serif&quot; style=&quot;font-size: 18px&quot;&gt;Nbr chambres &lt;b&gt;int&lt;/b&gt;&lt;/font&gt;&lt;/div&gt;&lt;div style=&quot;text-indent: -24px ; font-size: 18px&quot;&gt;&lt;font face=&quot;calibri, sans-serif&quot; style=&quot;font-size: 18px&quot;&gt;Nbr étages &lt;b&gt;int&lt;/b&gt;&amp;nbsp;&amp;nbsp;&lt;/font&gt;&lt;/div&gt;&lt;div style=&quot;text-indent: -24px ; font-size: 18px&quot;&gt;&lt;span style=&quot;font-family: &amp;#34;calibri&amp;#34; , sans-serif&quot;&gt;Garage &lt;b&gt;string&lt;/b&gt;&lt;/span&gt;&lt;/div&gt;&lt;p style=&quot;font-size: 20px&quot;&gt;&lt;/p&gt;" style="text;html=1;strokeColor=none;fillColor=none;align=left;verticalAlign=middle;whiteSpace=wrap;rounded=0;fontSize=20;" parent="OkvGatnhdS_OigGqhSep-8" vertex="1">
          <mxGeometry x="50" y="49.74" width="124" height="80" as="geometry" />
        </mxCell>
        <mxCell id="OkvGatnhdS_OigGqhSep-10" value="Entretient 2" style="swimlane;rounded=0;startSize=40;fontSize=20;" parent="OkvGatnhdS_OigGqhSep-1" vertex="1">
          <mxGeometry x="1020.5" y="40" width="200" height="160" as="geometry" />
        </mxCell>
        <mxCell id="OkvGatnhdS_OigGqhSep-11" value="&lt;p class=&quot;MsoListParagraphCxSpFirst&quot; style=&quot;margin: 0cm 0cm 0cm 36pt ; line-height: 15.6933px ; font-size: 11pt ; font-family: &amp;#34;calibri&amp;#34; , sans-serif ; text-indent: -18pt&quot;&gt;&lt;/p&gt;&lt;p class=&quot;MsoListParagraphCxSpFirst&quot; style=&quot;margin: 0cm 0cm 0cm 36pt ; line-height: 15.6933px ; text-indent: -18pt ; display: inline&quot;&gt;&lt;/p&gt;&lt;div style=&quot;text-indent: -24px ; font-size: 20px&quot;&gt;&lt;font face=&quot;calibri, sans-serif&quot; style=&quot;font-size: 20px&quot;&gt;Nbr chambres &lt;b&gt;int&lt;/b&gt;&lt;/font&gt;&lt;/div&gt;&lt;div style=&quot;text-indent: -24px ; font-size: 20px&quot;&gt;&lt;font face=&quot;calibri, sans-serif&quot; style=&quot;font-size: 20px&quot;&gt;Nº étage &lt;b&gt;int&lt;/b&gt;&lt;/font&gt;&lt;/div&gt;&lt;div style=&quot;text-indent: -24px ; font-size: 20px&quot;&gt;&lt;font face=&quot;calibri, sans-serif&quot; style=&quot;font-size: 20px&quot;&gt;Garage &lt;b&gt;string&lt;/b&gt;&lt;/font&gt;&lt;/div&gt;&lt;p&gt;&lt;/p&gt;" style="text;html=1;strokeColor=none;fillColor=none;align=left;verticalAlign=middle;whiteSpace=wrap;rounded=0;" parent="OkvGatnhdS_OigGqhSep-10" vertex="1">
          <mxGeometry x="40" y="56.87" width="154.75" height="80" as="geometry" />
        </mxCell>
        <mxCell id="OkvGatnhdS_OigGqhSep-12" value="Entretient 3" style="swimlane;startSize=40;fontSize=20;" parent="OkvGatnhdS_OigGqhSep-1" vertex="1">
          <mxGeometry x="1300.5" y="40" width="159.5" height="160" as="geometry" />
        </mxCell>
        <mxCell id="OkvGatnhdS_OigGqhSep-13" value="&lt;p class=&quot;MsoListParagraphCxSpFirst&quot; style=&quot;margin: 0cm 0cm 0cm 36pt ; line-height: 15.6933px ; font-size: 11pt ; font-family: &amp;#34;calibri&amp;#34; , sans-serif ; text-indent: -18pt&quot;&gt;&lt;/p&gt;&lt;p class=&quot;MsoListParagraphCxSpFirst&quot; style=&quot;margin: 0cm 0cm 0cm 36pt ; line-height: 15.6933px ; text-indent: -18pt ; display: inline&quot;&gt;&lt;/p&gt;&lt;div style=&quot;text-indent: -24px ; font-size: 20px&quot;&gt;&lt;span style=&quot;font-family: &amp;#34;calibri&amp;#34; , sans-serif&quot;&gt;Nº étage &lt;b&gt;int&lt;/b&gt;&lt;/span&gt;&lt;br&gt;&lt;/div&gt;&lt;p&gt;&lt;/p&gt;" style="text;html=1;strokeColor=none;fillColor=none;align=left;verticalAlign=middle;whiteSpace=wrap;rounded=0;" parent="OkvGatnhdS_OigGqhSep-12" vertex="1">
          <mxGeometry x="40" y="56.87" width="89.5" height="63.74" as="geometry" />
        </mxCell>
        <mxCell id="OkvGatnhdS_OigGqhSep-14" value="" style="triangle;whiteSpace=wrap;html=1;fontSize=20;rotation=-90;" parent="OkvGatnhdS_OigGqhSep-1" vertex="1">
          <mxGeometry x="1085.25" y="270" width="70.5" height="80" as="geometry" />
        </mxCell>
        <mxCell id="OkvGatnhdS_OigGqhSep-15" value="t,e" style="text;html=1;strokeColor=none;fillColor=none;align=center;verticalAlign=middle;whiteSpace=wrap;rounded=0;fontSize=20;" parent="OkvGatnhdS_OigGqhSep-1" vertex="1">
          <mxGeometry x="1100.5" y="310" width="40" height="20" as="geometry" />
        </mxCell>
        <mxCell id="OkvGatnhdS_OigGqhSep-16" value="" style="endArrow=classic;html=1;fontSize=20;exitX=0;exitY=0.5;exitDx=0;exitDy=0;entryX=0.5;entryY=0;entryDx=0;entryDy=0;" parent="OkvGatnhdS_OigGqhSep-1" source="OkvGatnhdS_OigGqhSep-14" target="OkvGatnhdS_OigGqhSep-6" edge="1">
          <mxGeometry width="50" height="50" relative="1" as="geometry">
            <mxPoint x="1080" y="620" as="sourcePoint" />
            <mxPoint x="1190" y="430" as="targetPoint" />
          </mxGeometry>
        </mxCell>
        <mxCell id="OkvGatnhdS_OigGqhSep-17" value="" style="endArrow=none;html=1;fontSize=20;strokeColor=#000000;fillColor=#000000;exitX=0.5;exitY=1;exitDx=0;exitDy=0;entryX=1;entryY=0.5;entryDx=0;entryDy=0;" parent="OkvGatnhdS_OigGqhSep-1" source="OkvGatnhdS_OigGqhSep-8" target="OkvGatnhdS_OigGqhSep-14" edge="1">
          <mxGeometry width="50" height="50" relative="1" as="geometry">
            <mxPoint x="910" y="410" as="sourcePoint" />
            <mxPoint x="960" y="360" as="targetPoint" />
          </mxGeometry>
        </mxCell>
        <mxCell id="OkvGatnhdS_OigGqhSep-18" value="" style="endArrow=none;html=1;fontSize=20;strokeColor=#000000;fillColor=#000000;entryX=0.5;entryY=1;entryDx=0;entryDy=0;exitX=1;exitY=0.5;exitDx=0;exitDy=0;" parent="OkvGatnhdS_OigGqhSep-1" source="OkvGatnhdS_OigGqhSep-14" target="OkvGatnhdS_OigGqhSep-10" edge="1">
          <mxGeometry width="50" height="50" relative="1" as="geometry">
            <mxPoint x="910" y="410" as="sourcePoint" />
            <mxPoint x="960" y="360" as="targetPoint" />
          </mxGeometry>
        </mxCell>
        <mxCell id="OkvGatnhdS_OigGqhSep-19" value="" style="endArrow=none;html=1;fontSize=20;strokeColor=#000000;fillColor=#000000;entryX=0.5;entryY=1;entryDx=0;entryDy=0;exitX=1;exitY=0.5;exitDx=0;exitDy=0;" parent="OkvGatnhdS_OigGqhSep-1" source="OkvGatnhdS_OigGqhSep-14" target="OkvGatnhdS_OigGqhSep-12" edge="1">
          <mxGeometry width="50" height="50" relative="1" as="geometry">
            <mxPoint x="910" y="410" as="sourcePoint" />
            <mxPoint x="960" y="360" as="targetPoint" />
          </mxGeometry>
        </mxCell>
        <mxCell id="OkvGatnhdS_OigGqhSep-20" value="" style="endArrow=none;html=1;fontSize=20;strokeColor=#000000;fillColor=#000000;exitX=1;exitY=0.5;exitDx=0;exitDy=0;entryX=0;entryY=0.5;entryDx=0;entryDy=0;startArrow=none;" parent="OkvGatnhdS_OigGqhSep-1" source="OkvGatnhdS_OigGqhSep-32" target="OkvGatnhdS_OigGqhSep-6" edge="1">
          <mxGeometry width="50" height="50" relative="1" as="geometry">
            <mxPoint x="930" y="510" as="sourcePoint" />
            <mxPoint x="960" y="530" as="targetPoint" />
          </mxGeometry>
        </mxCell>
        <mxCell id="OkvGatnhdS_OigGqhSep-21" value="" style="endArrow=none;html=1;fontSize=20;strokeColor=#000000;fillColor=#000000;exitX=1;exitY=0.5;exitDx=0;exitDy=0;entryX=0;entryY=0.5;entryDx=0;entryDy=0;startArrow=none;" parent="OkvGatnhdS_OigGqhSep-1" source="OkvGatnhdS_OigGqhSep-30" target="OkvGatnhdS_OigGqhSep-36" edge="1">
          <mxGeometry width="50" height="50" relative="1" as="geometry">
            <mxPoint x="560" y="561.8750000000001" as="sourcePoint" />
            <mxPoint x="660" y="553.75" as="targetPoint" />
          </mxGeometry>
        </mxCell>
        <mxCell id="OkvGatnhdS_OigGqhSep-22" value="" style="rounded=1;whiteSpace=wrap;html=1;fontSize=20;" parent="OkvGatnhdS_OigGqhSep-1" vertex="1">
          <mxGeometry x="1360" y="529.5" width="120" height="60" as="geometry" />
        </mxCell>
        <mxCell id="OkvGatnhdS_OigGqhSep-23" value="" style="endArrow=none;html=1;fontSize=20;strokeColor=#000000;fillColor=#000000;entryX=0;entryY=0.5;entryDx=0;entryDy=0;exitX=1;exitY=0.5;exitDx=0;exitDy=0;startArrow=none;" parent="OkvGatnhdS_OigGqhSep-1" source="OkvGatnhdS_OigGqhSep-25" target="OkvGatnhdS_OigGqhSep-22" edge="1">
          <mxGeometry width="50" height="50" relative="1" as="geometry">
            <mxPoint x="1252.75" y="540" as="sourcePoint" />
            <mxPoint x="1480" y="540" as="targetPoint" />
          </mxGeometry>
        </mxCell>
        <mxCell id="OkvGatnhdS_OigGqhSep-24" value="Posséder" style="text;html=1;strokeColor=none;fillColor=none;align=center;verticalAlign=middle;whiteSpace=wrap;rounded=0;fontSize=20;" parent="OkvGatnhdS_OigGqhSep-1" vertex="1">
          <mxGeometry x="1400" y="549.5" width="40" height="20" as="geometry" />
        </mxCell>
        <mxCell id="OkvGatnhdS_OigGqhSep-25" value="1,1" style="text;html=1;strokeColor=none;fillColor=none;align=center;verticalAlign=middle;whiteSpace=wrap;rounded=0;fontSize=20;" parent="OkvGatnhdS_OigGqhSep-1" vertex="1">
          <mxGeometry x="1290" y="550" width="40" height="20" as="geometry" />
        </mxCell>
        <mxCell id="OkvGatnhdS_OigGqhSep-26" value="" style="endArrow=none;html=1;fontSize=20;strokeColor=#000000;fillColor=#000000;entryX=0;entryY=0.5;entryDx=0;entryDy=0;exitX=1;exitY=0.5;exitDx=0;exitDy=0;" parent="OkvGatnhdS_OigGqhSep-1" source="OkvGatnhdS_OigGqhSep-6" target="OkvGatnhdS_OigGqhSep-25" edge="1">
          <mxGeometry width="50" height="50" relative="1" as="geometry">
            <mxPoint x="1240.5" y="559.5050000000001" as="sourcePoint" />
            <mxPoint x="1370" y="559.51" as="targetPoint" />
          </mxGeometry>
        </mxCell>
        <mxCell id="OkvGatnhdS_OigGqhSep-27" value="" style="endArrow=none;html=1;fontSize=20;strokeColor=#000000;fillColor=#000000;entryX=0;entryY=0.5;entryDx=0;entryDy=0;exitX=1;exitY=0.5;exitDx=0;exitDy=0;startArrow=none;" parent="OkvGatnhdS_OigGqhSep-1" source="OkvGatnhdS_OigGqhSep-28" target="OkvGatnhdS_OigGqhSep-4" edge="1">
          <mxGeometry width="50" height="50" relative="1" as="geometry">
            <mxPoint x="1240" y="410" as="sourcePoint" />
            <mxPoint x="1290" y="360" as="targetPoint" />
          </mxGeometry>
        </mxCell>
        <mxCell id="OkvGatnhdS_OigGqhSep-28" value="0,N" style="text;html=1;strokeColor=none;fillColor=none;align=center;verticalAlign=middle;whiteSpace=wrap;rounded=0;fontSize=20;" parent="OkvGatnhdS_OigGqhSep-1" vertex="1">
          <mxGeometry x="1520" y="550" width="40" height="20" as="geometry" />
        </mxCell>
        <mxCell id="OkvGatnhdS_OigGqhSep-29" value="" style="endArrow=none;html=1;fontSize=20;strokeColor=#000000;fillColor=#000000;entryX=0;entryY=0.5;entryDx=0;entryDy=0;exitX=1;exitY=0.5;exitDx=0;exitDy=0;" parent="OkvGatnhdS_OigGqhSep-1" source="OkvGatnhdS_OigGqhSep-22" target="OkvGatnhdS_OigGqhSep-28" edge="1">
          <mxGeometry width="50" height="50" relative="1" as="geometry">
            <mxPoint x="1480" y="559.5" as="sourcePoint" />
            <mxPoint x="1600" y="559.51" as="targetPoint" />
          </mxGeometry>
        </mxCell>
        <mxCell id="OkvGatnhdS_OigGqhSep-30" value="0,N" style="text;html=1;strokeColor=none;fillColor=none;align=center;verticalAlign=middle;whiteSpace=wrap;rounded=0;fontSize=20;" parent="OkvGatnhdS_OigGqhSep-1" vertex="1">
          <mxGeometry x="590" y="551.87" width="40" height="20" as="geometry" />
        </mxCell>
        <mxCell id="OkvGatnhdS_OigGqhSep-31" value="" style="endArrow=none;html=1;fontSize=20;strokeColor=#000000;fillColor=#000000;exitX=1;exitY=0.5;exitDx=0;exitDy=0;entryX=0;entryY=0.5;entryDx=0;entryDy=0;" parent="OkvGatnhdS_OigGqhSep-1" source="OkvGatnhdS_OigGqhSep-2" target="OkvGatnhdS_OigGqhSep-30" edge="1">
          <mxGeometry width="50" height="50" relative="1" as="geometry">
            <mxPoint x="509.9999999999998" y="561.8749999999999" as="sourcePoint" />
            <mxPoint x="630" y="561.87" as="targetPoint" />
          </mxGeometry>
        </mxCell>
        <mxCell id="OkvGatnhdS_OigGqhSep-32" value="0,N" style="text;html=1;strokeColor=none;fillColor=none;align=center;verticalAlign=middle;whiteSpace=wrap;rounded=0;fontSize=20;" parent="OkvGatnhdS_OigGqhSep-1" vertex="1">
          <mxGeometry x="905" y="550" width="40" height="20" as="geometry" />
        </mxCell>
        <mxCell id="OkvGatnhdS_OigGqhSep-33" value="" style="endArrow=none;html=1;fontSize=20;strokeColor=#000000;fillColor=#000000;exitX=1;exitY=0.5;exitDx=0;exitDy=0;entryX=0;entryY=0.5;entryDx=0;entryDy=0;startArrow=none;" parent="OkvGatnhdS_OigGqhSep-1" source="OkvGatnhdS_OigGqhSep-36" target="OkvGatnhdS_OigGqhSep-32" edge="1">
          <mxGeometry width="50" height="50" relative="1" as="geometry">
            <mxPoint x="860" y="553.75" as="sourcePoint" />
            <mxPoint x="1000" y="559.5050000000001" as="targetPoint" />
          </mxGeometry>
        </mxCell>
        <mxCell id="OkvGatnhdS_OigGqhSep-34" value="" style="swimlane;fontSize=18;align=center;" parent="OkvGatnhdS_OigGqhSep-1" vertex="1">
          <mxGeometry x="1020.25" y="790" width="200" height="200" as="geometry" />
        </mxCell>
        <mxCell id="OkvGatnhdS_OigGqhSep-35" value="&lt;font style=&quot;font-size: 18px&quot;&gt;&lt;br&gt;&lt;/font&gt;" style="text;html=1;align=left;verticalAlign=middle;resizable=0;points=[];autosize=1;strokeColor=none;fillColor=none;" parent="OkvGatnhdS_OigGqhSep-34" vertex="1">
          <mxGeometry x="15.25" y="100" width="20" height="40" as="geometry" />
        </mxCell>
        <mxCell id="OkvGatnhdS_OigGqhSep-36" value="Conduire" style="rounded=1;whiteSpace=wrap;html=1;fontSize=20;" parent="OkvGatnhdS_OigGqhSep-1" vertex="1">
          <mxGeometry x="710" y="530" width="120" height="60" as="geometry" />
        </mxCell>
        <mxCell id="OkvGatnhdS_OigGqhSep-37" value="Signer" style="rounded=1;whiteSpace=wrap;html=1;fontSize=20;" parent="OkvGatnhdS_OigGqhSep-1" vertex="1">
          <mxGeometry x="410" y="860" width="120" height="60" as="geometry" />
        </mxCell>
        <mxCell id="OkvGatnhdS_OigGqhSep-38" value="1,N" style="endArrow=none;html=1;rounded=0;fontSize=18;exitX=0.5;exitY=1;exitDx=0;exitDy=0;entryX=0;entryY=0.5;entryDx=0;entryDy=0;" parent="OkvGatnhdS_OigGqhSep-1" source="OkvGatnhdS_OigGqhSep-2" target="OkvGatnhdS_OigGqhSep-37" edge="1">
          <mxGeometry width="50" height="50" relative="1" as="geometry">
            <mxPoint x="590" y="790" as="sourcePoint" />
            <mxPoint x="640" y="740" as="targetPoint" />
          </mxGeometry>
        </mxCell>
        <mxCell id="OkvGatnhdS_OigGqhSep-39" value="1,N" style="endArrow=none;html=1;rounded=0;fontSize=18;entryX=0;entryY=0.5;entryDx=0;entryDy=0;exitX=1;exitY=0.5;exitDx=0;exitDy=0;" parent="OkvGatnhdS_OigGqhSep-1" source="OkvGatnhdS_OigGqhSep-37" target="OkvGatnhdS_OigGqhSep-34" edge="1">
          <mxGeometry width="50" height="50" relative="1" as="geometry">
            <mxPoint x="890" y="1000" as="sourcePoint" />
            <mxPoint x="940" y="950" as="targetPoint" />
          </mxGeometry>
        </mxCell>
        <mxCell id="OkvGatnhdS_OigGqhSep-40" value="Signer" style="rounded=1;whiteSpace=wrap;html=1;fontSize=20;" parent="OkvGatnhdS_OigGqhSep-1" vertex="1">
          <mxGeometry x="1604" y="860" width="120" height="60" as="geometry" />
        </mxCell>
        <mxCell id="OkvGatnhdS_OigGqhSep-41" value="1,1" style="endArrow=none;html=1;rounded=0;fontSize=18;exitX=1;exitY=0.5;exitDx=0;exitDy=0;entryX=0;entryY=0.5;entryDx=0;entryDy=0;" parent="OkvGatnhdS_OigGqhSep-1" source="OkvGatnhdS_OigGqhSep-34" target="OkvGatnhdS_OigGqhSep-40" edge="1">
          <mxGeometry width="50" height="50" relative="1" as="geometry">
            <mxPoint x="1460" y="940" as="sourcePoint" />
            <mxPoint x="1510" y="890" as="targetPoint" />
          </mxGeometry>
        </mxCell>
        <mxCell id="OkvGatnhdS_OigGqhSep-42" value="0,N" style="endArrow=none;html=1;rounded=0;fontSize=18;entryX=0.5;entryY=1;entryDx=0;entryDy=0;exitX=1;exitY=0.5;exitDx=0;exitDy=0;" parent="OkvGatnhdS_OigGqhSep-1" source="OkvGatnhdS_OigGqhSep-40" target="OkvGatnhdS_OigGqhSep-4" edge="1">
          <mxGeometry width="50" height="50" relative="1" as="geometry">
            <mxPoint x="1810" y="810" as="sourcePoint" />
            <mxPoint x="1860" y="760" as="targetPoint" />
          </mxGeometry>
        </mxCell>
        <mxCell id="OkvGatnhdS_OigGqhSep-43" value="Mécanicien" style="swimlane;fontSize=20;" parent="OkvGatnhdS_OigGqhSep-1" vertex="1">
          <mxGeometry x="1770" y="180" width="240" height="195" as="geometry" />
        </mxCell>
        <mxCell id="OkvGatnhdS_OigGqhSep-44" value="&lt;p class=&quot;MsoListParagraphCxSpFirst&quot; style=&quot;margin: 0cm 0cm 0cm 36pt ; line-height: 15.6933px ; font-size: 11pt ; font-family: &amp;#34;calibri&amp;#34; , sans-serif ; text-indent: -18pt&quot;&gt;&lt;/p&gt;&lt;p class=&quot;MsoListParagraphCxSpFirst&quot; style=&quot;margin: 0cm 0cm 0cm 36pt ; line-height: 15.6933px ; font-size: 11pt ; font-family: &amp;#34;calibri&amp;#34; , sans-serif ; text-indent: -18pt ; display: inline&quot;&gt;&lt;/p&gt;&lt;div style=&quot;font-size: 18px&quot;&gt;&lt;span style=&quot;text-indent: -18pt&quot;&gt;&lt;font style=&quot;font-size: 18px&quot;&gt;ID de propriétaire &lt;b&gt;string&lt;/b&gt;&lt;/font&gt;&lt;/span&gt;&lt;/div&gt;&lt;div style=&quot;font-size: 18px&quot;&gt;Nº de compte &lt;b&gt;int&lt;/b&gt;&lt;/div&gt;&lt;div style=&quot;font-size: 18px&quot;&gt;&lt;span style=&quot;font-family: &amp;#34;calibri&amp;#34; , sans-serif ; text-indent: -18pt&quot;&gt;Nom &lt;b&gt;string&amp;nbsp;&lt;/b&gt;&lt;/span&gt;&lt;/div&gt;&lt;div style=&quot;font-size: 18px&quot;&gt;&lt;span style=&quot;font-family: &amp;#34;calibri&amp;#34; , sans-serif ; text-indent: -18pt&quot;&gt;Liste de biens &lt;b&gt;string&lt;/b&gt;&lt;/span&gt;&lt;/div&gt;&lt;div style=&quot;font-size: 18px&quot;&gt;&lt;span style=&quot;font-family: &amp;#34;calibri&amp;#34; , sans-serif ; text-indent: -18pt&quot;&gt;(ID du bien, adresse)&lt;/span&gt;&lt;/div&gt;&lt;div style=&quot;font-size: 18px&quot;&gt;&lt;span style=&quot;font-family: &amp;#34;calibri&amp;#34; , sans-serif ; text-indent: -18pt&quot;&gt;Numéro de Tel &lt;b&gt;int&lt;/b&gt;&lt;/span&gt;&lt;/div&gt;&lt;div style=&quot;text-indent: -24px ; font-size: 18px&quot;&gt;&lt;font face=&quot;calibri, sans-serif&quot;&gt;&amp;nbsp; &amp;nbsp; &amp;nbsp;Adresse email &lt;b&gt;string&lt;/b&gt;&lt;/font&gt;&lt;/div&gt;" style="text;html=1;strokeColor=none;fillColor=none;align=left;verticalAlign=middle;whiteSpace=wrap;rounded=0;" parent="OkvGatnhdS_OigGqhSep-43" vertex="1">
          <mxGeometry x="10" y="34.87000000000001" width="220" height="130" as="geometry" />
        </mxCell>
        <mxCell id="OkvGatnhdS_OigGqhSep-45" value="Feuille de route" style="swimlane;fontSize=20;" parent="OkvGatnhdS_OigGqhSep-1" vertex="1">
          <mxGeometry x="2080" y="170" width="240" height="195" as="geometry" />
        </mxCell>
        <mxCell id="OkvGatnhdS_OigGqhSep-46" value="&lt;p class=&quot;MsoListParagraphCxSpFirst&quot; style=&quot;margin: 0cm 0cm 0cm 36pt ; line-height: 15.6933px ; font-size: 11pt ; font-family: &amp;quot;calibri&amp;quot; , sans-serif ; text-indent: -18pt&quot;&gt;&lt;/p&gt;&lt;p class=&quot;MsoListParagraphCxSpFirst&quot; style=&quot;margin: 0cm 0cm 0cm 36pt ; line-height: 15.6933px ; font-size: 11pt ; font-family: &amp;quot;calibri&amp;quot; , sans-serif ; text-indent: -18pt ; display: inline&quot;&gt;&lt;/p&gt;&lt;div style=&quot;font-size: 18px&quot;&gt;&lt;br&gt;&lt;/div&gt;" style="text;html=1;strokeColor=none;fillColor=none;align=left;verticalAlign=middle;whiteSpace=wrap;rounded=0;" parent="OkvGatnhdS_OigGqhSep-45" vertex="1">
          <mxGeometry x="10" y="34.87000000000001" width="220" height="130" as="geometry" />
        </mxCell>
        <mxCell id="OkvGatnhdS_OigGqhSep-47" value="Feuille de route" style="swimlane;fontSize=20;" parent="OkvGatnhdS_OigGqhSep-1" vertex="1">
          <mxGeometry x="1890" y="780" width="240" height="195" as="geometry" />
        </mxCell>
        <mxCell id="OkvGatnhdS_OigGqhSep-48" value="&lt;p class=&quot;MsoListParagraphCxSpFirst&quot; style=&quot;margin: 0cm 0cm 0cm 36pt ; line-height: 15.6933px ; font-size: 11pt ; font-family: &amp;quot;calibri&amp;quot; , sans-serif ; text-indent: -18pt&quot;&gt;&lt;/p&gt;&lt;p class=&quot;MsoListParagraphCxSpFirst&quot; style=&quot;margin: 0cm 0cm 0cm 36pt ; line-height: 15.6933px ; font-size: 11pt ; font-family: &amp;quot;calibri&amp;quot; , sans-serif ; text-indent: -18pt ; display: inline&quot;&gt;&lt;/p&gt;&lt;div style=&quot;font-size: 18px&quot;&gt;&lt;br&gt;&lt;/div&gt;" style="text;html=1;strokeColor=none;fillColor=none;align=left;verticalAlign=middle;whiteSpace=wrap;rounded=0;" parent="OkvGatnhdS_OigGqhSep-47" vertex="1">
          <mxGeometry x="10" y="34.87000000000001" width="220" height="130" as="geometry" />
        </mxCell>
        <mxCell id="OkvGatnhdS_OigGqhSep-49" value="Feuille de route" style="swimlane;fontSize=20;" parent="OkvGatnhdS_OigGqhSep-1" vertex="1">
          <mxGeometry x="294" y="115" width="240" height="195" as="geometry" />
        </mxCell>
        <mxCell id="OkvGatnhdS_OigGqhSep-50" value="&lt;p class=&quot;MsoListParagraphCxSpFirst&quot; style=&quot;margin: 0cm 0cm 0cm 36pt ; line-height: 15.6933px ; font-size: 11pt ; font-family: &amp;#34;calibri&amp;#34; , sans-serif ; text-indent: -18pt&quot;&gt;&lt;/p&gt;&lt;p class=&quot;MsoListParagraphCxSpFirst&quot; style=&quot;margin: 0cm 0cm 0cm 36pt ; line-height: 15.6933px ; font-size: 11pt ; font-family: &amp;#34;calibri&amp;#34; , sans-serif ; text-indent: -18pt ; display: inline&quot;&gt;&lt;/p&gt;&lt;div style=&quot;font-size: 18px&quot;&gt;&lt;span style=&quot;text-indent: -18pt&quot;&gt;&lt;font style=&quot;font-size: 18px&quot;&gt;ID de propriétaire &lt;b&gt;string&lt;/b&gt;&lt;/font&gt;&lt;/span&gt;&lt;/div&gt;&lt;div style=&quot;font-size: 18px&quot;&gt;Nº de compte &lt;b&gt;int&lt;/b&gt;&lt;/div&gt;&lt;div style=&quot;font-size: 18px&quot;&gt;&lt;span style=&quot;font-family: &amp;#34;calibri&amp;#34; , sans-serif ; text-indent: -18pt&quot;&gt;Nom &lt;b&gt;string&amp;nbsp;&lt;/b&gt;&lt;/span&gt;&lt;/div&gt;&lt;div style=&quot;font-size: 18px&quot;&gt;&lt;span style=&quot;font-family: &amp;#34;calibri&amp;#34; , sans-serif ; text-indent: -18pt&quot;&gt;Liste de biens &lt;b&gt;string&lt;/b&gt;&lt;/span&gt;&lt;/div&gt;&lt;div style=&quot;font-size: 18px&quot;&gt;&lt;span style=&quot;font-family: &amp;#34;calibri&amp;#34; , sans-serif ; text-indent: -18pt&quot;&gt;(ID du bien, adresse)&lt;/span&gt;&lt;/div&gt;&lt;div style=&quot;font-size: 18px&quot;&gt;&lt;span style=&quot;font-family: &amp;#34;calibri&amp;#34; , sans-serif ; text-indent: -18pt&quot;&gt;Numéro de Tel &lt;b&gt;int&lt;/b&gt;&lt;/span&gt;&lt;/div&gt;&lt;div style=&quot;text-indent: -24px ; font-size: 18px&quot;&gt;&lt;font face=&quot;calibri, sans-serif&quot;&gt;&amp;nbsp; &amp;nbsp; &amp;nbsp;Adresse email &lt;b&gt;string&lt;/b&gt;&lt;/font&gt;&lt;/div&gt;" style="text;html=1;strokeColor=none;fillColor=none;align=left;verticalAlign=middle;whiteSpace=wrap;rounded=0;" parent="OkvGatnhdS_OigGqhSep-49" vertex="1">
          <mxGeometry x="10" y="34.87000000000001" width="220" height="130" as="geometry" />
        </mxCell>
        <mxCell id="OkvGatnhdS_OigGqhSep-51" value="Feuille de route" style="swimlane;fontSize=20;" parent="OkvGatnhdS_OigGqhSep-1" vertex="1">
          <mxGeometry x="2060" y="487" width="240" height="195" as="geometry" />
        </mxCell>
        <mxCell id="OkvGatnhdS_OigGqhSep-52" value="&lt;p class=&quot;MsoListParagraphCxSpFirst&quot; style=&quot;margin: 0cm 0cm 0cm 36pt ; line-height: 15.6933px ; font-size: 11pt ; font-family: &amp;quot;calibri&amp;quot; , sans-serif ; text-indent: -18pt&quot;&gt;&lt;/p&gt;&lt;p class=&quot;MsoListParagraphCxSpFirst&quot; style=&quot;margin: 0cm 0cm 0cm 36pt ; line-height: 15.6933px ; font-size: 11pt ; font-family: &amp;quot;calibri&amp;quot; , sans-serif ; text-indent: -18pt ; display: inline&quot;&gt;&lt;/p&gt;&lt;div style=&quot;font-size: 18px&quot;&gt;&lt;br&gt;&lt;/div&gt;" style="text;html=1;strokeColor=none;fillColor=none;align=left;verticalAlign=middle;whiteSpace=wrap;rounded=0;" parent="OkvGatnhdS_OigGqhSep-51" vertex="1">
          <mxGeometry x="10" y="34.87000000000001" width="220" height="130" as="geometry" />
        </mxCell>
      </root>
    </mxGraphModel>
  </diagram>
  <diagram id="MBy5e2sgg7-yNC4DNb_m" name="EXO 2eme cours">
    <mxGraphModel dx="3137" dy="773" grid="1" gridSize="10" guides="1" tooltips="1" connect="1" arrows="1" fold="1" page="1" pageScale="1" pageWidth="827" pageHeight="1169" math="0" shadow="0">
      <root>
        <mxCell id="0" />
        <mxCell id="1" parent="0" />
        <mxCell id="VpLnEM4jagdBSgNuVwCe-44" style="edgeStyle=orthogonalEdgeStyle;rounded=0;orthogonalLoop=1;jettySize=auto;html=1;exitX=0.5;exitY=0;exitDx=0;exitDy=0;entryX=0;entryY=0.5;entryDx=0;entryDy=0;fontSize=20;" parent="1" source="VpLnEM4jagdBSgNuVwCe-1" target="VpLnEM4jagdBSgNuVwCe-40" edge="1">
          <mxGeometry relative="1" as="geometry" />
        </mxCell>
        <mxCell id="VpLnEM4jagdBSgNuVwCe-47" style="edgeStyle=orthogonalEdgeStyle;rounded=0;orthogonalLoop=1;jettySize=auto;html=1;entryX=0.5;entryY=0;entryDx=0;entryDy=0;fontSize=20;" parent="1" source="VpLnEM4jagdBSgNuVwCe-1" target="VpLnEM4jagdBSgNuVwCe-45" edge="1">
          <mxGeometry relative="1" as="geometry">
            <Array as="points">
              <mxPoint x="-35" y="630" />
              <mxPoint x="-35" y="630" />
            </Array>
          </mxGeometry>
        </mxCell>
        <mxCell id="VpLnEM4jagdBSgNuVwCe-58" value="1,N" style="edgeLabel;html=1;align=center;verticalAlign=middle;resizable=0;points=[];fontSize=20;" parent="VpLnEM4jagdBSgNuVwCe-47" vertex="1" connectable="0">
          <mxGeometry x="-0.4411" y="2" relative="1" as="geometry">
            <mxPoint as="offset" />
          </mxGeometry>
        </mxCell>
        <mxCell id="VpLnEM4jagdBSgNuVwCe-1" value="Employe" style="swimlane;fontStyle=0;childLayout=stackLayout;horizontal=1;startSize=26;fillColor=none;horizontalStack=0;resizeParent=1;resizeParentMax=0;resizeLast=0;collapsible=1;marginBottom=0;fontSize=20;" parent="1" vertex="1">
          <mxGeometry x="-100" y="520" width="140" height="52" as="geometry" />
        </mxCell>
        <mxCell id="VpLnEM4jagdBSgNuVwCe-2" value="+ field: type" style="text;strokeColor=none;fillColor=none;align=left;verticalAlign=top;spacingLeft=4;spacingRight=4;overflow=hidden;rotatable=0;points=[[0,0.5],[1,0.5]];portConstraint=eastwest;fontSize=20;" parent="VpLnEM4jagdBSgNuVwCe-1" vertex="1">
          <mxGeometry y="26" width="140" height="26" as="geometry" />
        </mxCell>
        <mxCell id="VpLnEM4jagdBSgNuVwCe-42" style="edgeStyle=orthogonalEdgeStyle;rounded=0;orthogonalLoop=1;jettySize=auto;html=1;exitX=0;exitY=0;exitDx=0;exitDy=0;entryX=-0.006;entryY=0.987;entryDx=0;entryDy=0;entryPerimeter=0;fontSize=20;" parent="1" source="VpLnEM4jagdBSgNuVwCe-5" target="VpLnEM4jagdBSgNuVwCe-40" edge="1">
          <mxGeometry relative="1" as="geometry">
            <Array as="points">
              <mxPoint x="200" y="420" />
            </Array>
          </mxGeometry>
        </mxCell>
        <mxCell id="VpLnEM4jagdBSgNuVwCe-5" value="Manager" style="swimlane;fontStyle=0;childLayout=stackLayout;horizontal=1;startSize=26;fillColor=none;horizontalStack=0;resizeParent=1;resizeParentMax=0;resizeLast=0;collapsible=1;marginBottom=0;fontSize=20;" parent="1" vertex="1">
          <mxGeometry x="200" y="520" width="140" height="52" as="geometry" />
        </mxCell>
        <mxCell id="VpLnEM4jagdBSgNuVwCe-41" style="edgeStyle=orthogonalEdgeStyle;rounded=0;orthogonalLoop=1;jettySize=auto;html=1;entryX=1;entryY=0.5;entryDx=0;entryDy=0;fontSize=20;" parent="1" source="VpLnEM4jagdBSgNuVwCe-9" target="VpLnEM4jagdBSgNuVwCe-40" edge="1">
          <mxGeometry relative="1" as="geometry" />
        </mxCell>
        <mxCell id="VpLnEM4jagdBSgNuVwCe-9" value="Personnel" style="swimlane;fontStyle=0;childLayout=stackLayout;horizontal=1;startSize=26;fillColor=none;horizontalStack=0;resizeParent=1;resizeParentMax=0;resizeLast=0;collapsible=1;marginBottom=0;fontSize=20;" parent="1" vertex="1">
          <mxGeometry x="-160" y="60" width="250" height="230" as="geometry" />
        </mxCell>
        <mxCell id="VpLnEM4jagdBSgNuVwCe-10" value="+ N° registre nat:  STRING" style="text;strokeColor=none;fillColor=#5C8DFF;align=left;verticalAlign=top;spacingLeft=4;spacingRight=4;overflow=hidden;rotatable=0;points=[[0,0.5],[1,0.5]];portConstraint=eastwest;fontSize=20;fontStyle=1" parent="VpLnEM4jagdBSgNuVwCe-9" vertex="1">
          <mxGeometry y="26" width="250" height="26" as="geometry" />
        </mxCell>
        <mxCell id="VpLnEM4jagdBSgNuVwCe-11" value="+ Nom: String" style="text;strokeColor=none;fillColor=none;align=left;verticalAlign=top;spacingLeft=4;spacingRight=4;overflow=hidden;rotatable=0;points=[[0,0.5],[1,0.5]];portConstraint=eastwest;fontSize=20;" parent="VpLnEM4jagdBSgNuVwCe-9" vertex="1">
          <mxGeometry y="52" width="250" height="26" as="geometry" />
        </mxCell>
        <mxCell id="VpLnEM4jagdBSgNuVwCe-12" value="+ Genre: Booléen&#xa;Date de naissance STRING&#xa;Tel STRING&#xa;Salaire FLoat" style="text;strokeColor=none;fillColor=none;align=left;verticalAlign=top;spacingLeft=4;spacingRight=4;overflow=hidden;rotatable=0;points=[[0,0.5],[1,0.5]];portConstraint=eastwest;fontSize=20;fontStyle=0" parent="VpLnEM4jagdBSgNuVwCe-9" vertex="1">
          <mxGeometry y="78" width="250" height="152" as="geometry" />
        </mxCell>
        <mxCell id="VpLnEM4jagdBSgNuVwCe-43" style="edgeStyle=orthogonalEdgeStyle;rounded=0;orthogonalLoop=1;jettySize=auto;html=1;exitX=1;exitY=0;exitDx=0;exitDy=0;entryX=0.106;entryY=0.071;entryDx=0;entryDy=0;entryPerimeter=0;fontSize=20;" parent="1" source="VpLnEM4jagdBSgNuVwCe-13" target="VpLnEM4jagdBSgNuVwCe-40" edge="1">
          <mxGeometry relative="1" as="geometry">
            <Array as="points">
              <mxPoint x="-414" y="860" />
              <mxPoint x="-414" y="420" />
              <mxPoint x="-69" y="420" />
            </Array>
          </mxGeometry>
        </mxCell>
        <mxCell id="VpLnEM4jagdBSgNuVwCe-55" style="edgeStyle=orthogonalEdgeStyle;rounded=0;orthogonalLoop=1;jettySize=auto;html=1;entryX=0;entryY=0.5;entryDx=0;entryDy=0;fontSize=20;" parent="1" source="VpLnEM4jagdBSgNuVwCe-13" target="VpLnEM4jagdBSgNuVwCe-53" edge="1">
          <mxGeometry relative="1" as="geometry" />
        </mxCell>
        <mxCell id="VpLnEM4jagdBSgNuVwCe-63" value="1,1" style="edgeLabel;html=1;align=center;verticalAlign=middle;resizable=0;points=[];fontSize=20;" parent="VpLnEM4jagdBSgNuVwCe-55" vertex="1" connectable="0">
          <mxGeometry x="-0.1534" y="-1" relative="1" as="geometry">
            <mxPoint as="offset" />
          </mxGeometry>
        </mxCell>
        <mxCell id="VpLnEM4jagdBSgNuVwCe-13" value="Technicien" style="swimlane;fontStyle=0;childLayout=stackLayout;horizontal=1;startSize=26;fillColor=none;horizontalStack=0;resizeParent=1;resizeParentMax=0;resizeLast=0;collapsible=1;marginBottom=0;fontSize=20;" parent="1" vertex="1">
          <mxGeometry x="-484" y="860" width="140" height="104" as="geometry" />
        </mxCell>
        <mxCell id="VpLnEM4jagdBSgNuVwCe-14" value="+ field: type" style="text;strokeColor=none;fillColor=none;align=left;verticalAlign=top;spacingLeft=4;spacingRight=4;overflow=hidden;rotatable=0;points=[[0,0.5],[1,0.5]];portConstraint=eastwest;fontSize=20;" parent="VpLnEM4jagdBSgNuVwCe-13" vertex="1">
          <mxGeometry y="26" width="140" height="26" as="geometry" />
        </mxCell>
        <mxCell id="VpLnEM4jagdBSgNuVwCe-15" value="+ field: type" style="text;strokeColor=none;fillColor=none;align=left;verticalAlign=top;spacingLeft=4;spacingRight=4;overflow=hidden;rotatable=0;points=[[0,0.5],[1,0.5]];portConstraint=eastwest;fontSize=20;" parent="VpLnEM4jagdBSgNuVwCe-13" vertex="1">
          <mxGeometry y="52" width="140" height="26" as="geometry" />
        </mxCell>
        <mxCell id="VpLnEM4jagdBSgNuVwCe-16" value="+ field: type" style="text;strokeColor=none;fillColor=none;align=left;verticalAlign=top;spacingLeft=4;spacingRight=4;overflow=hidden;rotatable=0;points=[[0,0.5],[1,0.5]];portConstraint=eastwest;fontSize=20;" parent="VpLnEM4jagdBSgNuVwCe-13" vertex="1">
          <mxGeometry y="78" width="140" height="26" as="geometry" />
        </mxCell>
        <mxCell id="VpLnEM4jagdBSgNuVwCe-48" style="edgeStyle=orthogonalEdgeStyle;rounded=0;orthogonalLoop=1;jettySize=auto;html=1;exitX=0.5;exitY=0;exitDx=0;exitDy=0;entryX=0.5;entryY=1;entryDx=0;entryDy=0;fontSize=20;" parent="1" source="VpLnEM4jagdBSgNuVwCe-17" target="VpLnEM4jagdBSgNuVwCe-45" edge="1">
          <mxGeometry relative="1" as="geometry">
            <Array as="points">
              <mxPoint x="-35" y="850" />
            </Array>
          </mxGeometry>
        </mxCell>
        <mxCell id="VpLnEM4jagdBSgNuVwCe-59" value="1,N" style="edgeLabel;html=1;align=center;verticalAlign=middle;resizable=0;points=[];fontSize=20;" parent="VpLnEM4jagdBSgNuVwCe-48" vertex="1" connectable="0">
          <mxGeometry x="0.254" y="-2" relative="1" as="geometry">
            <mxPoint y="1" as="offset" />
          </mxGeometry>
        </mxCell>
        <mxCell id="VpLnEM4jagdBSgNuVwCe-17" value="Département" style="swimlane;fontStyle=0;childLayout=stackLayout;horizontal=1;startSize=26;fillColor=none;horizontalStack=0;resizeParent=1;resizeParentMax=0;resizeLast=0;collapsible=1;marginBottom=0;fontSize=20;" parent="1" vertex="1">
          <mxGeometry x="-90" y="850" width="200" height="104" as="geometry" />
        </mxCell>
        <mxCell id="VpLnEM4jagdBSgNuVwCe-18" value="+ Nom: Attribue ID" style="text;strokeColor=none;fillColor=#5C8DFF;align=left;verticalAlign=top;spacingLeft=4;spacingRight=4;overflow=hidden;rotatable=0;points=[[0,0.5],[1,0.5]];portConstraint=eastwest;fontSize=20;" parent="VpLnEM4jagdBSgNuVwCe-17" vertex="1">
          <mxGeometry y="26" width="200" height="26" as="geometry" />
        </mxCell>
        <mxCell id="VpLnEM4jagdBSgNuVwCe-19" value="+ field: type" style="text;strokeColor=none;fillColor=none;align=left;verticalAlign=top;spacingLeft=4;spacingRight=4;overflow=hidden;rotatable=0;points=[[0,0.5],[1,0.5]];portConstraint=eastwest;fontSize=20;" parent="VpLnEM4jagdBSgNuVwCe-17" vertex="1">
          <mxGeometry y="52" width="200" height="26" as="geometry" />
        </mxCell>
        <mxCell id="VpLnEM4jagdBSgNuVwCe-20" value="+ field: type" style="text;strokeColor=none;fillColor=none;align=left;verticalAlign=top;spacingLeft=4;spacingRight=4;overflow=hidden;rotatable=0;points=[[0,0.5],[1,0.5]];portConstraint=eastwest;fontSize=20;" parent="VpLnEM4jagdBSgNuVwCe-17" vertex="1">
          <mxGeometry y="78" width="200" height="26" as="geometry" />
        </mxCell>
        <mxCell id="VpLnEM4jagdBSgNuVwCe-21" value="Locaux" style="swimlane;fontStyle=0;childLayout=stackLayout;horizontal=1;startSize=26;fillColor=none;horizontalStack=0;resizeParent=1;resizeParentMax=0;resizeLast=0;collapsible=1;marginBottom=0;fontSize=20;" parent="1" vertex="1">
          <mxGeometry x="-1040" y="870" width="200" height="104" as="geometry" />
        </mxCell>
        <mxCell id="VpLnEM4jagdBSgNuVwCe-22" value="+ Code: Attribue ID" style="text;strokeColor=#87ABFF;fillColor=#78A5FF;align=left;verticalAlign=top;spacingLeft=4;spacingRight=4;overflow=hidden;rotatable=0;points=[[0,0.5],[1,0.5]];portConstraint=eastwest;fontSize=20;" parent="VpLnEM4jagdBSgNuVwCe-21" vertex="1">
          <mxGeometry y="26" width="200" height="26" as="geometry" />
        </mxCell>
        <mxCell id="VpLnEM4jagdBSgNuVwCe-23" value="Nbr de place " style="text;strokeColor=none;fillColor=none;align=left;verticalAlign=top;spacingLeft=4;spacingRight=4;overflow=hidden;rotatable=0;points=[[0,0.5],[1,0.5]];portConstraint=eastwest;fontSize=20;" parent="VpLnEM4jagdBSgNuVwCe-21" vertex="1">
          <mxGeometry y="52" width="200" height="26" as="geometry" />
        </mxCell>
        <mxCell id="VpLnEM4jagdBSgNuVwCe-24" value="+ Types: type" style="text;strokeColor=none;fillColor=none;align=left;verticalAlign=top;spacingLeft=4;spacingRight=4;overflow=hidden;rotatable=0;points=[[0,0.5],[1,0.5]];portConstraint=eastwest;fontSize=20;" parent="VpLnEM4jagdBSgNuVwCe-21" vertex="1">
          <mxGeometry y="78" width="200" height="26" as="geometry" />
        </mxCell>
        <mxCell id="VpLnEM4jagdBSgNuVwCe-40" value="" style="triangle;whiteSpace=wrap;html=1;fontSize=20;rotation=-90;" parent="1" vertex="1">
          <mxGeometry x="-65" y="350" width="60" height="80" as="geometry" />
        </mxCell>
        <mxCell id="VpLnEM4jagdBSgNuVwCe-45" value="Travail&lt;br&gt;Nbr heures" style="rounded=1;whiteSpace=wrap;html=1;fontSize=20;" parent="1" vertex="1">
          <mxGeometry x="-95" y="700" width="120" height="60" as="geometry" />
        </mxCell>
        <mxCell id="VpLnEM4jagdBSgNuVwCe-50" style="edgeStyle=orthogonalEdgeStyle;rounded=0;orthogonalLoop=1;jettySize=auto;html=1;entryX=1.021;entryY=-0.159;entryDx=0;entryDy=0;entryPerimeter=0;fontSize=20;" parent="1" source="VpLnEM4jagdBSgNuVwCe-49" edge="1">
          <mxGeometry relative="1" as="geometry">
            <mxPoint x="342.94000000000005" y="567.866" as="targetPoint" />
          </mxGeometry>
        </mxCell>
        <mxCell id="VpLnEM4jagdBSgNuVwCe-61" value="0,1" style="edgeLabel;html=1;align=center;verticalAlign=middle;resizable=0;points=[];fontSize=20;" parent="VpLnEM4jagdBSgNuVwCe-50" vertex="1" connectable="0">
          <mxGeometry x="0.0437" y="-3" relative="1" as="geometry">
            <mxPoint as="offset" />
          </mxGeometry>
        </mxCell>
        <mxCell id="VpLnEM4jagdBSgNuVwCe-49" value="Diriger&lt;br&gt;Prime" style="rounded=1;whiteSpace=wrap;html=1;fontSize=20;" parent="1" vertex="1">
          <mxGeometry x="280" y="810" width="120" height="60" as="geometry" />
        </mxCell>
        <mxCell id="VpLnEM4jagdBSgNuVwCe-51" style="edgeStyle=orthogonalEdgeStyle;rounded=0;orthogonalLoop=1;jettySize=auto;html=1;entryX=0.5;entryY=1;entryDx=0;entryDy=0;fontSize=20;" parent="1" source="VpLnEM4jagdBSgNuVwCe-19" target="VpLnEM4jagdBSgNuVwCe-49" edge="1">
          <mxGeometry relative="1" as="geometry" />
        </mxCell>
        <mxCell id="VpLnEM4jagdBSgNuVwCe-60" value="1,1" style="edgeLabel;html=1;align=center;verticalAlign=middle;resizable=0;points=[];fontSize=20;" parent="VpLnEM4jagdBSgNuVwCe-51" vertex="1" connectable="0">
          <mxGeometry x="-0.3891" y="-3" relative="1" as="geometry">
            <mxPoint x="1" as="offset" />
          </mxGeometry>
        </mxCell>
        <mxCell id="VpLnEM4jagdBSgNuVwCe-52" value="Entretenir&lt;br&gt;MAX locaux(5)" style="rounded=1;whiteSpace=wrap;html=1;fontSize=20;" parent="1" vertex="1">
          <mxGeometry x="-710" y="890" width="120" height="90" as="geometry" />
        </mxCell>
        <mxCell id="VpLnEM4jagdBSgNuVwCe-54" style="edgeStyle=orthogonalEdgeStyle;rounded=0;orthogonalLoop=1;jettySize=auto;html=1;entryX=1.025;entryY=0.085;entryDx=0;entryDy=0;entryPerimeter=0;fontSize=20;" parent="1" source="VpLnEM4jagdBSgNuVwCe-53" target="VpLnEM4jagdBSgNuVwCe-5" edge="1">
          <mxGeometry relative="1" as="geometry">
            <Array as="points">
              <mxPoint x="570" y="1070" />
              <mxPoint x="570" y="529" />
            </Array>
          </mxGeometry>
        </mxCell>
        <mxCell id="VpLnEM4jagdBSgNuVwCe-62" value="1,N" style="edgeLabel;html=1;align=center;verticalAlign=middle;resizable=0;points=[];fontSize=20;" parent="VpLnEM4jagdBSgNuVwCe-54" vertex="1" connectable="0">
          <mxGeometry x="-0.6413" y="7" relative="1" as="geometry">
            <mxPoint x="1" as="offset" />
          </mxGeometry>
        </mxCell>
        <mxCell id="VpLnEM4jagdBSgNuVwCe-53" value="Supervise" style="rounded=1;whiteSpace=wrap;html=1;fontSize=20;" parent="1" vertex="1">
          <mxGeometry x="-250" y="1040" width="120" height="60" as="geometry" />
        </mxCell>
        <mxCell id="VpLnEM4jagdBSgNuVwCe-56" style="edgeStyle=orthogonalEdgeStyle;rounded=0;orthogonalLoop=1;jettySize=auto;html=1;exitX=0;exitY=0.5;exitDx=0;exitDy=0;entryX=1;entryY=0.5;entryDx=0;entryDy=0;fontSize=20;" parent="1" source="VpLnEM4jagdBSgNuVwCe-15" target="VpLnEM4jagdBSgNuVwCe-52" edge="1">
          <mxGeometry relative="1" as="geometry">
            <Array as="points">
              <mxPoint x="-484" y="935" />
            </Array>
          </mxGeometry>
        </mxCell>
        <mxCell id="VpLnEM4jagdBSgNuVwCe-64" value="1,5" style="edgeLabel;html=1;align=center;verticalAlign=middle;resizable=0;points=[];fontSize=20;" parent="VpLnEM4jagdBSgNuVwCe-56" vertex="1" connectable="0">
          <mxGeometry x="-0.1231" relative="1" as="geometry">
            <mxPoint as="offset" />
          </mxGeometry>
        </mxCell>
        <mxCell id="VpLnEM4jagdBSgNuVwCe-57" style="edgeStyle=orthogonalEdgeStyle;rounded=0;orthogonalLoop=1;jettySize=auto;html=1;exitX=1;exitY=0.5;exitDx=0;exitDy=0;fontSize=20;" parent="1" source="VpLnEM4jagdBSgNuVwCe-23" target="VpLnEM4jagdBSgNuVwCe-52" edge="1">
          <mxGeometry relative="1" as="geometry">
            <Array as="points">
              <mxPoint x="-780" y="935" />
            </Array>
          </mxGeometry>
        </mxCell>
        <mxCell id="VpLnEM4jagdBSgNuVwCe-65" value="0,N" style="edgeLabel;html=1;align=center;verticalAlign=middle;resizable=0;points=[];fontSize=20;" parent="VpLnEM4jagdBSgNuVwCe-57" vertex="1" connectable="0">
          <mxGeometry x="-0.0667" y="-1" relative="1" as="geometry">
            <mxPoint as="offset" />
          </mxGeometry>
        </mxCell>
        <mxCell id="VpLnEM4jagdBSgNuVwCe-70" value="Ca pourrai etre 1,N aussi&amp;nbsp;" style="text;html=1;align=center;verticalAlign=middle;resizable=0;points=[];autosize=1;strokeColor=none;fillColor=none;fontSize=20;" parent="1" vertex="1">
          <mxGeometry x="-400" y="980" width="250" height="40" as="geometry" />
        </mxCell>
        <mxCell id="VpLnEM4jagdBSgNuVwCe-71" value="Ici les sous classes employé etc... n&#39;ont pas&amp;nbsp;&lt;br&gt;de nouveaux attribut mais ils sont définis par leur association&amp;nbsp;&lt;br&gt;ce qui apporte de la valeur a cette héritage" style="text;html=1;align=center;verticalAlign=middle;resizable=0;points=[];autosize=1;strokeColor=none;fillColor=none;fontSize=20;" parent="1" vertex="1">
          <mxGeometry x="20" y="290" width="570" height="90" as="geometry" />
        </mxCell>
        <mxCell id="VpLnEM4jagdBSgNuVwCe-72" value="5 ici car on connait la cardinalité&amp;nbsp;" style="text;html=1;align=center;verticalAlign=middle;resizable=0;points=[];autosize=1;strokeColor=none;fillColor=none;fontSize=20;" parent="1" vertex="1">
          <mxGeometry x="-620" y="800" width="310" height="40" as="geometry" />
        </mxCell>
        <mxCell id="VpLnEM4jagdBSgNuVwCe-73" value="Ici héritage de l&#39;attribue identifiant&lt;br&gt;N° registre" style="text;html=1;align=center;verticalAlign=middle;resizable=0;points=[];autosize=1;strokeColor=none;fillColor=none;fontSize=20;" parent="1" vertex="1">
          <mxGeometry x="-485" y="305" width="320" height="60" as="geometry" />
        </mxCell>
      </root>
    </mxGraphModel>
  </diagram>
  <diagram id="6QhOC_qZKPHmk2jQSAmp" name="EXO 3 relationnel beauté">
    <mxGraphModel dx="1186" dy="1787" grid="1" gridSize="10" guides="1" tooltips="1" connect="1" arrows="1" fold="1" page="1" pageScale="1" pageWidth="827" pageHeight="1169" math="0" shadow="0">
      <root>
        <mxCell id="0" />
        <mxCell id="1" parent="0" />
        <mxCell id="Uwd30hbYyo8jQKCN0EFP-5" value="Département" style="shape=table;startSize=30;container=1;collapsible=1;childLayout=tableLayout;fixedRows=1;rowLines=0;fontStyle=1;align=center;resizeLast=1;strokeColor=#87ABFF;fontSize=20;fillColor=#5C8DFF;" parent="1" vertex="1">
          <mxGeometry x="540" y="-70" width="180" height="160" as="geometry" />
        </mxCell>
        <mxCell id="Uwd30hbYyo8jQKCN0EFP-6" value="" style="shape=tableRow;horizontal=0;startSize=0;swimlaneHead=0;swimlaneBody=0;fillColor=none;collapsible=0;dropTarget=0;points=[[0,0.5],[1,0.5]];portConstraint=eastwest;top=0;left=0;right=0;bottom=1;strokeColor=#87ABFF;fontSize=20;" parent="Uwd30hbYyo8jQKCN0EFP-5" vertex="1">
          <mxGeometry y="30" width="180" height="30" as="geometry" />
        </mxCell>
        <mxCell id="Uwd30hbYyo8jQKCN0EFP-7" value="PK" style="shape=partialRectangle;connectable=0;fillColor=none;top=0;left=0;bottom=0;right=0;fontStyle=1;overflow=hidden;strokeColor=#87ABFF;fontSize=20;" parent="Uwd30hbYyo8jQKCN0EFP-6" vertex="1">
          <mxGeometry width="30" height="30" as="geometry">
            <mxRectangle width="30" height="30" as="alternateBounds" />
          </mxGeometry>
        </mxCell>
        <mxCell id="Uwd30hbYyo8jQKCN0EFP-8" value="Code DEP" style="shape=partialRectangle;connectable=0;fillColor=none;top=0;left=0;bottom=0;right=0;align=left;spacingLeft=6;fontStyle=5;overflow=hidden;strokeColor=#87ABFF;fontSize=20;" parent="Uwd30hbYyo8jQKCN0EFP-6" vertex="1">
          <mxGeometry x="30" width="150" height="30" as="geometry">
            <mxRectangle width="150" height="30" as="alternateBounds" />
          </mxGeometry>
        </mxCell>
        <mxCell id="Uwd30hbYyo8jQKCN0EFP-9" value="" style="shape=tableRow;horizontal=0;startSize=0;swimlaneHead=0;swimlaneBody=0;fillColor=none;collapsible=0;dropTarget=0;points=[[0,0.5],[1,0.5]];portConstraint=eastwest;top=0;left=0;right=0;bottom=0;strokeColor=#87ABFF;fontSize=20;" parent="Uwd30hbYyo8jQKCN0EFP-5" vertex="1">
          <mxGeometry y="60" width="180" height="30" as="geometry" />
        </mxCell>
        <mxCell id="Uwd30hbYyo8jQKCN0EFP-10" value="" style="shape=partialRectangle;connectable=0;fillColor=none;top=0;left=0;bottom=0;right=0;editable=1;overflow=hidden;strokeColor=#87ABFF;fontSize=20;" parent="Uwd30hbYyo8jQKCN0EFP-9" vertex="1">
          <mxGeometry width="30" height="30" as="geometry">
            <mxRectangle width="30" height="30" as="alternateBounds" />
          </mxGeometry>
        </mxCell>
        <mxCell id="Uwd30hbYyo8jQKCN0EFP-11" value="Description" style="shape=partialRectangle;connectable=0;fillColor=none;top=0;left=0;bottom=0;right=0;align=left;spacingLeft=6;overflow=hidden;strokeColor=#87ABFF;fontSize=20;" parent="Uwd30hbYyo8jQKCN0EFP-9" vertex="1">
          <mxGeometry x="30" width="150" height="30" as="geometry">
            <mxRectangle width="150" height="30" as="alternateBounds" />
          </mxGeometry>
        </mxCell>
        <mxCell id="Uwd30hbYyo8jQKCN0EFP-12" value="" style="shape=tableRow;horizontal=0;startSize=0;swimlaneHead=0;swimlaneBody=0;fillColor=none;collapsible=0;dropTarget=0;points=[[0,0.5],[1,0.5]];portConstraint=eastwest;top=0;left=0;right=0;bottom=0;strokeColor=#87ABFF;fontSize=20;" parent="Uwd30hbYyo8jQKCN0EFP-5" vertex="1">
          <mxGeometry y="90" width="180" height="30" as="geometry" />
        </mxCell>
        <mxCell id="Uwd30hbYyo8jQKCN0EFP-13" value="" style="shape=partialRectangle;connectable=0;fillColor=none;top=0;left=0;bottom=0;right=0;editable=1;overflow=hidden;strokeColor=#87ABFF;fontSize=20;" parent="Uwd30hbYyo8jQKCN0EFP-12" vertex="1">
          <mxGeometry width="30" height="30" as="geometry">
            <mxRectangle width="30" height="30" as="alternateBounds" />
          </mxGeometry>
        </mxCell>
        <mxCell id="Uwd30hbYyo8jQKCN0EFP-14" value="Année" style="shape=partialRectangle;connectable=0;fillColor=none;top=0;left=0;bottom=0;right=0;align=left;spacingLeft=6;overflow=hidden;strokeColor=#87ABFF;fontSize=20;" parent="Uwd30hbYyo8jQKCN0EFP-12" vertex="1">
          <mxGeometry x="30" width="150" height="30" as="geometry">
            <mxRectangle width="150" height="30" as="alternateBounds" />
          </mxGeometry>
        </mxCell>
        <mxCell id="Uwd30hbYyo8jQKCN0EFP-15" value="" style="shape=tableRow;horizontal=0;startSize=0;swimlaneHead=0;swimlaneBody=0;fillColor=none;collapsible=0;dropTarget=0;points=[[0,0.5],[1,0.5]];portConstraint=eastwest;top=0;left=0;right=0;bottom=0;strokeColor=#87ABFF;fontSize=20;" parent="Uwd30hbYyo8jQKCN0EFP-5" vertex="1">
          <mxGeometry y="120" width="180" height="30" as="geometry" />
        </mxCell>
        <mxCell id="Uwd30hbYyo8jQKCN0EFP-16" value="" style="shape=partialRectangle;connectable=0;fillColor=none;top=0;left=0;bottom=0;right=0;editable=1;overflow=hidden;strokeColor=#87ABFF;fontSize=20;" parent="Uwd30hbYyo8jQKCN0EFP-15" vertex="1">
          <mxGeometry width="30" height="30" as="geometry">
            <mxRectangle width="30" height="30" as="alternateBounds" />
          </mxGeometry>
        </mxCell>
        <mxCell id="Uwd30hbYyo8jQKCN0EFP-17" value="" style="shape=partialRectangle;connectable=0;fillColor=none;top=0;left=0;bottom=0;right=0;align=left;spacingLeft=6;overflow=hidden;strokeColor=#87ABFF;fontSize=20;" parent="Uwd30hbYyo8jQKCN0EFP-15" vertex="1">
          <mxGeometry x="30" width="150" height="30" as="geometry">
            <mxRectangle width="150" height="30" as="alternateBounds" />
          </mxGeometry>
        </mxCell>
        <mxCell id="Uwd30hbYyo8jQKCN0EFP-82" style="edgeStyle=orthogonalEdgeStyle;rounded=0;orthogonalLoop=1;jettySize=auto;html=1;exitX=0.5;exitY=0;exitDx=0;exitDy=0;entryX=0;entryY=0.5;entryDx=0;entryDy=0;fontSize=20;" parent="1" source="Uwd30hbYyo8jQKCN0EFP-18" target="Uwd30hbYyo8jQKCN0EFP-6" edge="1">
          <mxGeometry relative="1" as="geometry" />
        </mxCell>
        <mxCell id="Uwd30hbYyo8jQKCN0EFP-83" value="1,N" style="edgeLabel;html=1;align=center;verticalAlign=middle;resizable=0;points=[];fontSize=20;" parent="Uwd30hbYyo8jQKCN0EFP-82" vertex="1" connectable="0">
          <mxGeometry x="-0.0923" y="-1" relative="1" as="geometry">
            <mxPoint x="-1" as="offset" />
          </mxGeometry>
        </mxCell>
        <mxCell id="Uwd30hbYyo8jQKCN0EFP-18" value="équipe" style="shape=table;startSize=30;container=1;collapsible=1;childLayout=tableLayout;fixedRows=1;rowLines=0;fontStyle=1;align=center;resizeLast=1;strokeColor=#87ABFF;fontSize=20;fillColor=#5C8DFF;" parent="1" vertex="1">
          <mxGeometry x="60" y="140" width="180" height="160" as="geometry" />
        </mxCell>
        <mxCell id="Uwd30hbYyo8jQKCN0EFP-19" value="" style="shape=tableRow;horizontal=0;startSize=0;swimlaneHead=0;swimlaneBody=0;fillColor=none;collapsible=0;dropTarget=0;points=[[0,0.5],[1,0.5]];portConstraint=eastwest;top=0;left=0;right=0;bottom=1;strokeColor=#87ABFF;fontSize=20;" parent="Uwd30hbYyo8jQKCN0EFP-18" vertex="1">
          <mxGeometry y="30" width="180" height="30" as="geometry" />
        </mxCell>
        <mxCell id="Uwd30hbYyo8jQKCN0EFP-20" value="PK" style="shape=partialRectangle;connectable=0;fillColor=none;top=0;left=0;bottom=0;right=0;fontStyle=1;overflow=hidden;strokeColor=#87ABFF;fontSize=20;" parent="Uwd30hbYyo8jQKCN0EFP-19" vertex="1">
          <mxGeometry width="30" height="30" as="geometry">
            <mxRectangle width="30" height="30" as="alternateBounds" />
          </mxGeometry>
        </mxCell>
        <mxCell id="Uwd30hbYyo8jQKCN0EFP-21" value="Code EKIP" style="shape=partialRectangle;connectable=0;fillColor=none;top=0;left=0;bottom=0;right=0;align=left;spacingLeft=6;fontStyle=5;overflow=hidden;strokeColor=#87ABFF;fontSize=20;" parent="Uwd30hbYyo8jQKCN0EFP-19" vertex="1">
          <mxGeometry x="30" width="150" height="30" as="geometry">
            <mxRectangle width="150" height="30" as="alternateBounds" />
          </mxGeometry>
        </mxCell>
        <mxCell id="Uwd30hbYyo8jQKCN0EFP-22" value="" style="shape=tableRow;horizontal=0;startSize=0;swimlaneHead=0;swimlaneBody=0;fillColor=none;collapsible=0;dropTarget=0;points=[[0,0.5],[1,0.5]];portConstraint=eastwest;top=0;left=0;right=0;bottom=0;strokeColor=#87ABFF;fontSize=20;" parent="Uwd30hbYyo8jQKCN0EFP-18" vertex="1">
          <mxGeometry y="60" width="180" height="30" as="geometry" />
        </mxCell>
        <mxCell id="Uwd30hbYyo8jQKCN0EFP-23" value="" style="shape=partialRectangle;connectable=0;fillColor=none;top=0;left=0;bottom=0;right=0;editable=1;overflow=hidden;strokeColor=#87ABFF;fontSize=20;" parent="Uwd30hbYyo8jQKCN0EFP-22" vertex="1">
          <mxGeometry width="30" height="30" as="geometry">
            <mxRectangle width="30" height="30" as="alternateBounds" />
          </mxGeometry>
        </mxCell>
        <mxCell id="Uwd30hbYyo8jQKCN0EFP-24" value="Description" style="shape=partialRectangle;connectable=0;fillColor=none;top=0;left=0;bottom=0;right=0;align=left;spacingLeft=6;overflow=hidden;strokeColor=#87ABFF;fontSize=20;" parent="Uwd30hbYyo8jQKCN0EFP-22" vertex="1">
          <mxGeometry x="30" width="150" height="30" as="geometry">
            <mxRectangle width="150" height="30" as="alternateBounds" />
          </mxGeometry>
        </mxCell>
        <mxCell id="Uwd30hbYyo8jQKCN0EFP-25" value="" style="shape=tableRow;horizontal=0;startSize=0;swimlaneHead=0;swimlaneBody=0;fillColor=none;collapsible=0;dropTarget=0;points=[[0,0.5],[1,0.5]];portConstraint=eastwest;top=0;left=0;right=0;bottom=0;strokeColor=#87ABFF;fontSize=20;" parent="Uwd30hbYyo8jQKCN0EFP-18" vertex="1">
          <mxGeometry y="90" width="180" height="30" as="geometry" />
        </mxCell>
        <mxCell id="Uwd30hbYyo8jQKCN0EFP-26" value="" style="shape=partialRectangle;connectable=0;fillColor=none;top=0;left=0;bottom=0;right=0;editable=1;overflow=hidden;strokeColor=#87ABFF;fontSize=20;" parent="Uwd30hbYyo8jQKCN0EFP-25" vertex="1">
          <mxGeometry width="30" height="30" as="geometry">
            <mxRectangle width="30" height="30" as="alternateBounds" />
          </mxGeometry>
        </mxCell>
        <mxCell id="Uwd30hbYyo8jQKCN0EFP-27" value="Année" style="shape=partialRectangle;connectable=0;fillColor=none;top=0;left=0;bottom=0;right=0;align=left;spacingLeft=6;overflow=hidden;strokeColor=#87ABFF;fontSize=20;" parent="Uwd30hbYyo8jQKCN0EFP-25" vertex="1">
          <mxGeometry x="30" width="150" height="30" as="geometry">
            <mxRectangle width="150" height="30" as="alternateBounds" />
          </mxGeometry>
        </mxCell>
        <mxCell id="Uwd30hbYyo8jQKCN0EFP-28" value="" style="shape=tableRow;horizontal=0;startSize=0;swimlaneHead=0;swimlaneBody=0;fillColor=none;collapsible=0;dropTarget=0;points=[[0,0.5],[1,0.5]];portConstraint=eastwest;top=0;left=0;right=0;bottom=0;strokeColor=#87ABFF;fontSize=20;" parent="Uwd30hbYyo8jQKCN0EFP-18" vertex="1">
          <mxGeometry y="120" width="180" height="30" as="geometry" />
        </mxCell>
        <mxCell id="Uwd30hbYyo8jQKCN0EFP-29" value="FK" style="shape=partialRectangle;connectable=0;fillColor=none;top=0;left=0;bottom=0;right=0;editable=1;overflow=hidden;strokeColor=#87ABFF;fontSize=20;" parent="Uwd30hbYyo8jQKCN0EFP-28" vertex="1">
          <mxGeometry width="30" height="30" as="geometry">
            <mxRectangle width="30" height="30" as="alternateBounds" />
          </mxGeometry>
        </mxCell>
        <mxCell id="Uwd30hbYyo8jQKCN0EFP-30" value="COde DEP" style="shape=partialRectangle;connectable=0;fillColor=none;top=0;left=0;bottom=0;right=0;align=left;spacingLeft=6;overflow=hidden;strokeColor=#87ABFF;fontSize=20;" parent="Uwd30hbYyo8jQKCN0EFP-28" vertex="1">
          <mxGeometry x="30" width="150" height="30" as="geometry">
            <mxRectangle width="150" height="30" as="alternateBounds" />
          </mxGeometry>
        </mxCell>
        <mxCell id="Uwd30hbYyo8jQKCN0EFP-31" value="Personne" style="shape=table;startSize=30;container=1;collapsible=1;childLayout=tableLayout;fixedRows=1;rowLines=0;fontStyle=1;align=center;resizeLast=1;strokeColor=#87ABFF;fontSize=20;fillColor=#5C8DFF;" parent="1" vertex="1">
          <mxGeometry x="240" y="470" width="180" height="250" as="geometry" />
        </mxCell>
        <mxCell id="Uwd30hbYyo8jQKCN0EFP-32" value="" style="shape=tableRow;horizontal=0;startSize=0;swimlaneHead=0;swimlaneBody=0;fillColor=none;collapsible=0;dropTarget=0;points=[[0,0.5],[1,0.5]];portConstraint=eastwest;top=0;left=0;right=0;bottom=1;strokeColor=#87ABFF;fontSize=20;" parent="Uwd30hbYyo8jQKCN0EFP-31" vertex="1">
          <mxGeometry y="30" width="180" height="30" as="geometry" />
        </mxCell>
        <mxCell id="Uwd30hbYyo8jQKCN0EFP-33" value="PK" style="shape=partialRectangle;connectable=0;fillColor=none;top=0;left=0;bottom=0;right=0;fontStyle=1;overflow=hidden;strokeColor=#87ABFF;fontSize=20;" parent="Uwd30hbYyo8jQKCN0EFP-32" vertex="1">
          <mxGeometry width="30" height="30" as="geometry">
            <mxRectangle width="30" height="30" as="alternateBounds" />
          </mxGeometry>
        </mxCell>
        <mxCell id="Uwd30hbYyo8jQKCN0EFP-34" value="Personnel ID" style="shape=partialRectangle;connectable=0;fillColor=none;top=0;left=0;bottom=0;right=0;align=left;spacingLeft=6;fontStyle=5;overflow=hidden;strokeColor=#87ABFF;fontSize=20;" parent="Uwd30hbYyo8jQKCN0EFP-32" vertex="1">
          <mxGeometry x="30" width="150" height="30" as="geometry">
            <mxRectangle width="150" height="30" as="alternateBounds" />
          </mxGeometry>
        </mxCell>
        <mxCell id="Uwd30hbYyo8jQKCN0EFP-35" value="" style="shape=tableRow;horizontal=0;startSize=0;swimlaneHead=0;swimlaneBody=0;fillColor=none;collapsible=0;dropTarget=0;points=[[0,0.5],[1,0.5]];portConstraint=eastwest;top=0;left=0;right=0;bottom=0;strokeColor=#87ABFF;fontSize=20;" parent="Uwd30hbYyo8jQKCN0EFP-31" vertex="1">
          <mxGeometry y="60" width="180" height="30" as="geometry" />
        </mxCell>
        <mxCell id="Uwd30hbYyo8jQKCN0EFP-36" value="" style="shape=partialRectangle;connectable=0;fillColor=none;top=0;left=0;bottom=0;right=0;editable=1;overflow=hidden;strokeColor=#87ABFF;fontSize=20;" parent="Uwd30hbYyo8jQKCN0EFP-35" vertex="1">
          <mxGeometry width="30" height="30" as="geometry">
            <mxRectangle width="30" height="30" as="alternateBounds" />
          </mxGeometry>
        </mxCell>
        <mxCell id="Uwd30hbYyo8jQKCN0EFP-37" value="Nom" style="shape=partialRectangle;connectable=0;fillColor=none;top=0;left=0;bottom=0;right=0;align=left;spacingLeft=6;overflow=hidden;strokeColor=#87ABFF;fontSize=20;" parent="Uwd30hbYyo8jQKCN0EFP-35" vertex="1">
          <mxGeometry x="30" width="150" height="30" as="geometry">
            <mxRectangle width="150" height="30" as="alternateBounds" />
          </mxGeometry>
        </mxCell>
        <mxCell id="Uwd30hbYyo8jQKCN0EFP-38" value="" style="shape=tableRow;horizontal=0;startSize=0;swimlaneHead=0;swimlaneBody=0;fillColor=none;collapsible=0;dropTarget=0;points=[[0,0.5],[1,0.5]];portConstraint=eastwest;top=0;left=0;right=0;bottom=0;strokeColor=#87ABFF;fontSize=20;" parent="Uwd30hbYyo8jQKCN0EFP-31" vertex="1">
          <mxGeometry y="90" width="180" height="30" as="geometry" />
        </mxCell>
        <mxCell id="Uwd30hbYyo8jQKCN0EFP-39" value="" style="shape=partialRectangle;connectable=0;fillColor=none;top=0;left=0;bottom=0;right=0;editable=1;overflow=hidden;strokeColor=#87ABFF;fontSize=20;" parent="Uwd30hbYyo8jQKCN0EFP-38" vertex="1">
          <mxGeometry width="30" height="30" as="geometry">
            <mxRectangle width="30" height="30" as="alternateBounds" />
          </mxGeometry>
        </mxCell>
        <mxCell id="Uwd30hbYyo8jQKCN0EFP-40" value="Prenom" style="shape=partialRectangle;connectable=0;fillColor=none;top=0;left=0;bottom=0;right=0;align=left;spacingLeft=6;overflow=hidden;strokeColor=#87ABFF;fontSize=20;" parent="Uwd30hbYyo8jQKCN0EFP-38" vertex="1">
          <mxGeometry x="30" width="150" height="30" as="geometry">
            <mxRectangle width="150" height="30" as="alternateBounds" />
          </mxGeometry>
        </mxCell>
        <mxCell id="Uwd30hbYyo8jQKCN0EFP-41" value="" style="shape=tableRow;horizontal=0;startSize=0;swimlaneHead=0;swimlaneBody=0;fillColor=none;collapsible=0;dropTarget=0;points=[[0,0.5],[1,0.5]];portConstraint=eastwest;top=0;left=0;right=0;bottom=0;strokeColor=#87ABFF;fontSize=20;" parent="Uwd30hbYyo8jQKCN0EFP-31" vertex="1">
          <mxGeometry y="120" width="180" height="30" as="geometry" />
        </mxCell>
        <mxCell id="Uwd30hbYyo8jQKCN0EFP-42" value="" style="shape=partialRectangle;connectable=0;fillColor=none;top=0;left=0;bottom=0;right=0;editable=1;overflow=hidden;strokeColor=#87ABFF;fontSize=20;" parent="Uwd30hbYyo8jQKCN0EFP-41" vertex="1">
          <mxGeometry width="30" height="30" as="geometry">
            <mxRectangle width="30" height="30" as="alternateBounds" />
          </mxGeometry>
        </mxCell>
        <mxCell id="Uwd30hbYyo8jQKCN0EFP-43" value="Expertise" style="shape=partialRectangle;connectable=0;fillColor=none;top=0;left=0;bottom=0;right=0;align=left;spacingLeft=6;overflow=hidden;strokeColor=#87ABFF;fontSize=20;" parent="Uwd30hbYyo8jQKCN0EFP-41" vertex="1">
          <mxGeometry x="30" width="150" height="30" as="geometry">
            <mxRectangle width="150" height="30" as="alternateBounds" />
          </mxGeometry>
        </mxCell>
        <mxCell id="Uwd30hbYyo8jQKCN0EFP-57" value="Projet" style="shape=table;startSize=30;container=1;collapsible=1;childLayout=tableLayout;fixedRows=1;rowLines=0;fontStyle=1;align=center;resizeLast=1;strokeColor=#87ABFF;fontSize=20;fillColor=#5C8DFF;" parent="1" vertex="1">
          <mxGeometry x="920" y="478" width="180" height="162" as="geometry" />
        </mxCell>
        <mxCell id="Uwd30hbYyo8jQKCN0EFP-58" value="" style="shape=tableRow;horizontal=0;startSize=0;swimlaneHead=0;swimlaneBody=0;fillColor=none;collapsible=0;dropTarget=0;points=[[0,0.5],[1,0.5]];portConstraint=eastwest;top=0;left=0;right=0;bottom=1;strokeColor=#87ABFF;fontSize=20;" parent="Uwd30hbYyo8jQKCN0EFP-57" vertex="1">
          <mxGeometry y="30" width="180" height="30" as="geometry" />
        </mxCell>
        <mxCell id="Uwd30hbYyo8jQKCN0EFP-59" value="PK" style="shape=partialRectangle;connectable=0;fillColor=none;top=0;left=0;bottom=0;right=0;fontStyle=1;overflow=hidden;strokeColor=#87ABFF;fontSize=20;" parent="Uwd30hbYyo8jQKCN0EFP-58" vertex="1">
          <mxGeometry width="30" height="30" as="geometry">
            <mxRectangle width="30" height="30" as="alternateBounds" />
          </mxGeometry>
        </mxCell>
        <mxCell id="Uwd30hbYyo8jQKCN0EFP-60" value="Code projet" style="shape=partialRectangle;connectable=0;fillColor=none;top=0;left=0;bottom=0;right=0;align=left;spacingLeft=6;fontStyle=5;overflow=hidden;strokeColor=#87ABFF;fontSize=20;" parent="Uwd30hbYyo8jQKCN0EFP-58" vertex="1">
          <mxGeometry x="30" width="150" height="30" as="geometry">
            <mxRectangle width="150" height="30" as="alternateBounds" />
          </mxGeometry>
        </mxCell>
        <mxCell id="Uwd30hbYyo8jQKCN0EFP-61" value="" style="shape=tableRow;horizontal=0;startSize=0;swimlaneHead=0;swimlaneBody=0;fillColor=none;collapsible=0;dropTarget=0;points=[[0,0.5],[1,0.5]];portConstraint=eastwest;top=0;left=0;right=0;bottom=0;strokeColor=#87ABFF;fontSize=20;" parent="Uwd30hbYyo8jQKCN0EFP-57" vertex="1">
          <mxGeometry y="60" width="180" height="30" as="geometry" />
        </mxCell>
        <mxCell id="Uwd30hbYyo8jQKCN0EFP-62" value="" style="shape=partialRectangle;connectable=0;fillColor=none;top=0;left=0;bottom=0;right=0;editable=1;overflow=hidden;strokeColor=#87ABFF;fontSize=20;" parent="Uwd30hbYyo8jQKCN0EFP-61" vertex="1">
          <mxGeometry width="30" height="30" as="geometry">
            <mxRectangle width="30" height="30" as="alternateBounds" />
          </mxGeometry>
        </mxCell>
        <mxCell id="Uwd30hbYyo8jQKCN0EFP-63" value="Row 1" style="shape=partialRectangle;connectable=0;fillColor=none;top=0;left=0;bottom=0;right=0;align=left;spacingLeft=6;overflow=hidden;strokeColor=#87ABFF;fontSize=20;" parent="Uwd30hbYyo8jQKCN0EFP-61" vertex="1">
          <mxGeometry x="30" width="150" height="30" as="geometry">
            <mxRectangle width="150" height="30" as="alternateBounds" />
          </mxGeometry>
        </mxCell>
        <mxCell id="Uwd30hbYyo8jQKCN0EFP-64" value="" style="shape=tableRow;horizontal=0;startSize=0;swimlaneHead=0;swimlaneBody=0;fillColor=none;collapsible=0;dropTarget=0;points=[[0,0.5],[1,0.5]];portConstraint=eastwest;top=0;left=0;right=0;bottom=0;strokeColor=#87ABFF;fontSize=20;" parent="Uwd30hbYyo8jQKCN0EFP-57" vertex="1">
          <mxGeometry y="90" width="180" height="32" as="geometry" />
        </mxCell>
        <mxCell id="Uwd30hbYyo8jQKCN0EFP-65" value="" style="shape=partialRectangle;connectable=0;fillColor=none;top=0;left=0;bottom=0;right=0;editable=1;overflow=hidden;strokeColor=#87ABFF;fontSize=20;" parent="Uwd30hbYyo8jQKCN0EFP-64" vertex="1">
          <mxGeometry width="30" height="32" as="geometry">
            <mxRectangle width="30" height="32" as="alternateBounds" />
          </mxGeometry>
        </mxCell>
        <mxCell id="Uwd30hbYyo8jQKCN0EFP-66" value="Row 2" style="shape=partialRectangle;connectable=0;fillColor=none;top=0;left=0;bottom=0;right=0;align=left;spacingLeft=6;overflow=hidden;strokeColor=#87ABFF;fontSize=20;" parent="Uwd30hbYyo8jQKCN0EFP-64" vertex="1">
          <mxGeometry x="30" width="150" height="32" as="geometry">
            <mxRectangle width="150" height="32" as="alternateBounds" />
          </mxGeometry>
        </mxCell>
        <mxCell id="Uwd30hbYyo8jQKCN0EFP-67" value="" style="shape=tableRow;horizontal=0;startSize=0;swimlaneHead=0;swimlaneBody=0;fillColor=none;collapsible=0;dropTarget=0;points=[[0,0.5],[1,0.5]];portConstraint=eastwest;top=0;left=0;right=0;bottom=0;strokeColor=#87ABFF;fontSize=20;" parent="Uwd30hbYyo8jQKCN0EFP-57" vertex="1">
          <mxGeometry y="122" width="180" height="30" as="geometry" />
        </mxCell>
        <mxCell id="Uwd30hbYyo8jQKCN0EFP-68" value="" style="shape=partialRectangle;connectable=0;fillColor=none;top=0;left=0;bottom=0;right=0;editable=1;overflow=hidden;strokeColor=#87ABFF;fontSize=20;" parent="Uwd30hbYyo8jQKCN0EFP-67" vertex="1">
          <mxGeometry width="30" height="30" as="geometry">
            <mxRectangle width="30" height="30" as="alternateBounds" />
          </mxGeometry>
        </mxCell>
        <mxCell id="Uwd30hbYyo8jQKCN0EFP-69" value="Row 3" style="shape=partialRectangle;connectable=0;fillColor=none;top=0;left=0;bottom=0;right=0;align=left;spacingLeft=6;overflow=hidden;strokeColor=#87ABFF;fontSize=20;" parent="Uwd30hbYyo8jQKCN0EFP-67" vertex="1">
          <mxGeometry x="30" width="150" height="30" as="geometry">
            <mxRectangle width="150" height="30" as="alternateBounds" />
          </mxGeometry>
        </mxCell>
        <mxCell id="Uwd30hbYyo8jQKCN0EFP-71" style="edgeStyle=orthogonalEdgeStyle;rounded=0;orthogonalLoop=1;jettySize=auto;html=1;exitX=0;exitY=0.5;exitDx=0;exitDy=0;entryX=0.5;entryY=1;entryDx=0;entryDy=0;fontSize=20;" parent="1" source="Uwd30hbYyo8jQKCN0EFP-35" target="Uwd30hbYyo8jQKCN0EFP-18" edge="1">
          <mxGeometry relative="1" as="geometry" />
        </mxCell>
        <mxCell id="Uwd30hbYyo8jQKCN0EFP-84" value="1,N" style="edgeLabel;html=1;align=center;verticalAlign=middle;resizable=0;points=[];fontSize=20;" parent="Uwd30hbYyo8jQKCN0EFP-71" vertex="1" connectable="0">
          <mxGeometry x="-0.156" y="3" relative="1" as="geometry">
            <mxPoint as="offset" />
          </mxGeometry>
        </mxCell>
        <mxCell id="Uwd30hbYyo8jQKCN0EFP-72" value="Date naissance" style="shape=partialRectangle;connectable=0;fillColor=none;top=0;left=0;bottom=0;right=0;align=left;spacingLeft=6;overflow=hidden;strokeColor=#87ABFF;fontSize=20;" parent="1" vertex="1">
          <mxGeometry x="270" y="620" width="150" height="30" as="geometry">
            <mxRectangle width="150" height="30" as="alternateBounds" />
          </mxGeometry>
        </mxCell>
        <mxCell id="Uwd30hbYyo8jQKCN0EFP-73" value="Time FTE" style="shape=partialRectangle;connectable=0;fillColor=none;top=0;left=0;bottom=0;right=0;align=left;spacingLeft=6;overflow=hidden;strokeColor=#87ABFF;fontSize=20;" parent="1" vertex="1">
          <mxGeometry x="270" y="650" width="150" height="30" as="geometry">
            <mxRectangle width="150" height="30" as="alternateBounds" />
          </mxGeometry>
        </mxCell>
        <mxCell id="Uwd30hbYyo8jQKCN0EFP-74" value="Participe" style="swimlane;fontStyle=0;childLayout=stackLayout;horizontal=1;startSize=26;horizontalStack=0;resizeParent=1;resizeParentMax=0;resizeLast=0;collapsible=1;marginBottom=0;align=center;fontSize=14;strokeColor=#87ABFF;fillColor=#5C8DFF;" parent="1" vertex="1">
          <mxGeometry x="580" y="520" width="160" height="116" as="geometry" />
        </mxCell>
        <mxCell id="Uwd30hbYyo8jQKCN0EFP-75" value="PERsonal ID" style="text;strokeColor=none;fillColor=none;spacingLeft=4;spacingRight=4;overflow=hidden;rotatable=0;points=[[0,0.5],[1,0.5]];portConstraint=eastwest;fontSize=12;" parent="Uwd30hbYyo8jQKCN0EFP-74" vertex="1">
          <mxGeometry y="26" width="160" height="30" as="geometry" />
        </mxCell>
        <mxCell id="Uwd30hbYyo8jQKCN0EFP-76" value="Code projet" style="text;strokeColor=none;fillColor=none;spacingLeft=4;spacingRight=4;overflow=hidden;rotatable=0;points=[[0,0.5],[1,0.5]];portConstraint=eastwest;fontSize=12;" parent="Uwd30hbYyo8jQKCN0EFP-74" vertex="1">
          <mxGeometry y="56" width="160" height="30" as="geometry" />
        </mxCell>
        <mxCell id="Uwd30hbYyo8jQKCN0EFP-77" value="Item 3" style="text;strokeColor=none;fillColor=none;spacingLeft=4;spacingRight=4;overflow=hidden;rotatable=0;points=[[0,0.5],[1,0.5]];portConstraint=eastwest;fontSize=12;" parent="Uwd30hbYyo8jQKCN0EFP-74" vertex="1">
          <mxGeometry y="86" width="160" height="30" as="geometry" />
        </mxCell>
        <mxCell id="Uwd30hbYyo8jQKCN0EFP-78" style="edgeStyle=orthogonalEdgeStyle;rounded=0;orthogonalLoop=1;jettySize=auto;html=1;fontSize=20;" parent="1" source="Uwd30hbYyo8jQKCN0EFP-76" edge="1">
          <mxGeometry relative="1" as="geometry">
            <mxPoint x="920" y="591" as="targetPoint" />
          </mxGeometry>
        </mxCell>
        <mxCell id="Uwd30hbYyo8jQKCN0EFP-86" value="1,N" style="edgeLabel;html=1;align=center;verticalAlign=middle;resizable=0;points=[];fontSize=20;" parent="Uwd30hbYyo8jQKCN0EFP-78" vertex="1" connectable="0">
          <mxGeometry x="0.2431" y="-1" relative="1" as="geometry">
            <mxPoint x="-1" as="offset" />
          </mxGeometry>
        </mxCell>
        <mxCell id="Uwd30hbYyo8jQKCN0EFP-79" style="edgeStyle=orthogonalEdgeStyle;rounded=0;orthogonalLoop=1;jettySize=auto;html=1;entryX=1.038;entryY=0.051;entryDx=0;entryDy=0;entryPerimeter=0;fontSize=20;" parent="1" source="Uwd30hbYyo8jQKCN0EFP-76" target="Uwd30hbYyo8jQKCN0EFP-41" edge="1">
          <mxGeometry relative="1" as="geometry" />
        </mxCell>
        <mxCell id="Uwd30hbYyo8jQKCN0EFP-85" value="1,N" style="edgeLabel;html=1;align=center;verticalAlign=middle;resizable=0;points=[];fontSize=20;" parent="Uwd30hbYyo8jQKCN0EFP-79" vertex="1" connectable="0">
          <mxGeometry x="-0.2435" y="-2" relative="1" as="geometry">
            <mxPoint x="-3" as="offset" />
          </mxGeometry>
        </mxCell>
        <mxCell id="Uwd30hbYyo8jQKCN0EFP-80" value="Code EKIP" style="shape=partialRectangle;connectable=0;fillColor=none;top=0;left=0;bottom=0;right=0;align=left;spacingLeft=6;overflow=hidden;strokeColor=#87ABFF;fontSize=20;" parent="1" vertex="1">
          <mxGeometry x="270" y="680" width="150" height="30" as="geometry">
            <mxRectangle width="150" height="30" as="alternateBounds" />
          </mxGeometry>
        </mxCell>
        <mxCell id="Uwd30hbYyo8jQKCN0EFP-81" value="FK" style="shape=partialRectangle;connectable=0;fillColor=none;top=0;left=0;bottom=0;right=0;editable=1;overflow=hidden;strokeColor=#87ABFF;fontSize=20;" parent="1" vertex="1">
          <mxGeometry x="250" y="680" width="30" height="30" as="geometry">
            <mxRectangle width="30" height="30" as="alternateBounds" />
          </mxGeometry>
        </mxCell>
      </root>
    </mxGraphModel>
  </diagram>
</mxfile>
